<?xml version="1.0" encoding="UTF-8"?>
<svg width="270px" height="73px" viewBox="0 0 270 73" version="1.1" xmlns="http://www.w3.org/2000/svg" xmlns:xlink="http://www.w3.org/1999/xlink">
    <!-- Generator: Sketch 52.5 (67469) - http://www.bohemiancoding.com/sketch -->
    <title>logo</title>
    <desc>Created with Sketch.</desc>
    <g id="logo" stroke="none" stroke-width="1" fill="none" fill-rule="evenodd">
        <path d="M63.6939419,0.148343023 L46.2302791,0.148343023 L46.2302791,12.2857849 L48.4907442,12.2857849 L48.4860349,15.4896802 L43.7406279,20.3229942 C42.2964419,19.717064 40.5712674,19.9682267 39.3578372,21.114157 C37.7174302,22.6619477 37.6420814,25.2473547 39.1883023,26.8877616 C40.7376628,28.5297384 43.3215,28.6050872 44.9634767,27.0572965 C46.2663837,25.8265988 46.5646395,23.9475872 45.8629535,22.4013663 L51.462314,16.6936919 L51.4701628,12.2857849 L56.6865,12.2857849 L62.2905698,21.9947965 L57.6974302,21.9869477 L51.9913256,27.5172384 L47.0371395,27.5093895 L47.0230116,35.9563081 L55.4683605,35.970436 L55.4809186,28.2738663 L58.8904535,24.9695058 L64.0141744,24.9773547 L70.4235349,36.0803198 L56.6865,59.8732849 L46.4186512,59.8732849 L42.0955116,49.5473547 L46.0026628,45.4832267 C46.534814,45.704564 47.1187674,45.825436 47.7325465,45.8003198 C49.9851628,45.7077035 51.738593,43.8051453 51.6428372,41.5509593 C51.5486512,39.2967733 49.646093,37.5449128 47.391907,37.6390988 C45.1377209,37.7301453 43.3874302,39.6342733 43.4816163,41.8884593 C43.503593,42.4394477 43.638593,42.9590407 43.8552209,43.4299709 L38.5949302,48.9006105 L46.2302791,67.1428779 L46.2302791,72.0122965 L63.6939419,72.0122965 L84.4384186,36.0803198 L63.6939419,0.148343023 Z" id="Fill-1" fill="#B01D32"></path>
        <path d="M22.7299186,48.64725 L26.6747442,47.4306802 C27.3324767,48.2563779 28.3041628,48.8309128 29.4359651,48.9502151 C31.6791628,49.1919593 33.6931744,47.5656802 33.9317791,45.3240523 C34.1703837,43.0808547 32.5456744,41.066843 30.3040465,40.8282384 C28.0592791,40.5864942 26.0468372,42.2112035 25.8082326,44.4544012 C25.8035233,44.4999244 25.8113721,44.5438779 25.8066628,44.5878314 L21.2056744,46.0084709 L15.4744535,36.0796919 L26.4879419,17.0054477 L28.6589302,18.6489942 L33.9490465,31.2149826 C33.0542791,32.0940523 32.4263721,33.2713779 32.2819535,34.6323663 C31.9554419,37.6871337 34.0997442,40.4232384 37.0728837,40.7419012 C40.0444535,41.0589942 42.7193372,38.839343 43.0427093,35.7845756 C43.3692209,32.7266686 41.2233488,29.9937035 38.2517791,29.6750407 C37.6709651,29.61225 37.1089884,29.6734709 36.5658488,29.7927733 L31.0418372,16.766843 L27.9729419,14.4310291 L29.2114884,12.2867267 L39.6661395,12.2867267 L39.6661395,0.147715116 L22.2040465,0.147715116 L1.458,36.0796919 L22.2040465,72.0116686 L39.6661395,72.0116686 L39.6661395,59.8742267 L29.2114884,59.8742267 L22.7299186,48.64725 Z" id="Fill-3" fill="#B01D32"></path>
        <path d="M108.520064,41.1624419 L106.396169,41.1624419 L106.396169,42.8169767 L108.520064,43.1827326 L108.520064,58.1284884 L106.396169,58.4926744 L106.396169,60.1346512 L115.518087,60.1346512 C117.445762,60.1346512 118.974715,59.6762791 120.103378,58.7595349 C121.23361,57.8427907 121.797157,56.5163372 121.797157,54.7786047 C121.797157,53.615407 121.467506,52.5950581 120.808203,51.7175581 C120.147331,50.8400581 119.247855,50.2796512 118.109773,50.0363372 C118.987273,49.7145349 119.693669,49.2216279 120.22739,48.5576163 C120.76268,47.8920349 121.029541,47.1385465 121.029541,46.2971512 C121.029541,44.5845349 120.470703,43.3020349 119.354599,42.4465116 C118.238494,41.5909884 116.690703,41.1624419 114.709657,41.1624419 L108.520064,41.1624419 Z M115.908959,51.2356395 C117.028203,51.2356395 117.86018,51.5527326 118.40332,52.1853488 C118.946459,52.8195349 119.218029,53.6938953 119.218029,54.8052907 C119.218029,55.8648837 118.894657,56.6843023 118.247913,57.2619767 C117.599599,57.8396512 116.690703,58.1284884 115.518087,58.1284884 L111.086634,58.1284884 L111.086634,51.2356395 L115.908959,51.2356395 Z M111.086634,43.1827326 L114.709657,43.1827326 C115.926227,43.1827326 116.855529,43.4354651 117.497564,43.9440698 C118.141169,44.4526744 118.461401,45.2187209 118.461401,46.2437791 C118.461401,47.1652326 118.177273,47.8857558 117.609017,48.4069186 C117.039192,48.9280814 116.295122,49.2027907 115.373669,49.227907 L111.086634,49.227907 L111.086634,43.1827326 Z M126.547273,48.0552907 L126.547273,58.1284884 L124.423378,58.4926744 L124.423378,60.1346512 L131.237738,60.1346512 L131.237738,58.4926744 L129.113843,58.1284884 L129.113843,50.0363372 C129.366576,49.4633721 129.722913,49.0175581 130.182855,48.7004651 C130.642797,48.3833721 131.212622,48.2248256 131.889192,48.2248256 L133.349076,48.303314 L133.688145,45.9188372 C133.575122,45.8843023 133.411866,45.8513372 133.199948,45.8215116 C132.986459,45.7901163 132.77925,45.7744186 132.57989,45.7744186 C131.824831,45.7744186 131.152971,45.9800581 130.567448,46.3881977 C129.980355,46.7963372 129.487448,47.3598837 129.088727,48.0819767 L128.840703,46.035 L124.423378,46.035 L124.423378,47.6911047 L126.547273,48.0552907 Z M148.288552,60.1346512 L148.288552,58.4926744 L147.246227,58.3498256 C147.22739,58.1755814 147.217971,58.0013372 147.213262,57.8286628 C147.208552,57.6544186 147.206983,57.4770349 147.206983,57.2933721 L147.206983,50.5056977 C147.206983,48.984593 146.710936,47.816686 145.720413,47.000407 C144.731459,46.1841279 143.436401,45.7744186 141.838378,45.7744186 C140.769366,45.7744186 139.778843,45.9298256 138.866808,46.2375 C137.954773,46.5467442 137.177738,46.9564535 136.534134,47.4697674 L136.534134,50.2058721 L138.51518,50.2058721 L138.78832,48.7193023 C139.092855,48.4336047 139.490006,48.2075581 139.981343,48.0427326 C140.47111,47.877907 141.039366,47.7947093 141.681401,47.7947093 C142.610703,47.7947093 143.335936,48.0364535 143.857099,48.5183721 C144.378262,49.0002907 144.638843,49.653314 144.638843,50.4790116 L144.638843,52.1209884 L141.993785,52.1209884 C140.108494,52.1209884 138.626634,52.4836047 137.545064,53.2088372 C136.463494,53.9340698 135.921924,54.965407 135.921924,56.3044186 C135.921924,57.6073256 136.304948,58.616686 137.069424,59.3325 C137.833901,60.0498837 138.950006,60.4077907 140.417738,60.4077907 C141.260703,60.4077907 142.053436,60.1974419 142.795936,59.7767442 C143.538436,59.3544767 144.156924,58.8270349 144.652971,58.1928488 C144.670238,58.4973837 144.700064,58.8019186 144.744017,59.1048837 C144.786401,59.4094186 144.847622,59.7516279 144.92611,60.1346512 L148.288552,60.1346512 Z M139.063029,57.7690116 C138.680006,57.4440698 138.488494,56.9731395 138.488494,56.3562209 C138.488494,55.660814 138.796169,55.0705814 139.408378,54.5839535 C140.020587,54.0973256 140.852564,53.8540116 141.902738,53.8540116 L144.638843,53.8540116 L144.638843,56.1741279 C144.335878,56.747093 143.831983,57.2368605 143.128727,57.645 C142.423901,58.0547093 141.646866,58.2587791 140.796052,58.2587791 C140.022157,58.2587791 139.444483,58.0955233 139.063029,57.7690116 Z M150.691866,60.1346512 L157.506227,60.1346512 L157.506227,58.4926744 L155.382331,58.1284884 L155.382331,46.035 L150.691866,46.035 L150.691866,47.6911047 L152.815762,48.0552907 L152.815762,58.1284884 L150.691866,58.4926744 L150.691866,60.1346512 Z M152.815762,42.4261047 L155.382331,42.4261047 L155.382331,39.8077326 L152.815762,39.8077326 L152.815762,42.4261047 Z M159.350703,60.1346512 L166.165064,60.1346512 L166.165064,58.4926744 L164.041169,58.1284884 L164.041169,49.8542442 C164.380238,49.2373256 164.833901,48.7506977 165.402157,48.3943605 C165.971983,48.0380233 166.625006,47.8606395 167.364366,47.8606395 C168.372157,47.8606395 169.120936,48.1212209 169.612273,48.6423837 C170.102041,49.1635465 170.348494,50.044186 170.348494,51.2874419 L170.348494,58.1284884 L168.224599,58.4926744 L168.224599,60.1346512 L175.038959,60.1346512 L175.038959,58.4926744 L172.915064,58.1284884 L172.915064,51.2356395 C172.915064,49.3754651 172.497506,48.0019186 171.663959,47.1102907 C170.830413,46.2202326 169.653087,45.7744186 168.131983,45.7744186 C167.229366,45.7744186 166.424076,45.9816279 165.71611,46.3944767 C165.008145,46.8073256 164.419483,47.3865698 163.950122,48.1337791 L163.768029,46.035 L159.350703,46.035 L159.350703,47.6911047 L161.474599,48.0552907 L161.474599,58.1284884 L159.350703,58.4926744 L159.350703,60.1346512 Z M176.490994,41.1624419 L176.490994,45.3584302 L178.693378,45.3584302 L178.875471,43.1827326 L183.098145,43.1827326 L183.098145,58.1284884 L180.97425,58.4926744 L180.97425,60.1346512 L187.78861,60.1346512 L187.78861,58.4926744 L185.664715,58.1284884 L185.664715,43.1827326 L189.873262,43.1827326 L190.069483,45.3584302 L192.257738,45.3584302 L192.257738,41.1624419 L176.490994,41.1624419 Z M192.890355,53.2418023 C192.890355,55.3358721 193.453901,57.0531977 194.584134,58.3953488 C195.712797,59.7375 197.254308,60.4077907 199.208669,60.4077907 C201.145762,60.4077907 202.679424,59.7390698 203.809657,58.4016279 C204.93832,57.064186 205.503436,55.3437209 205.503436,53.2418023 L205.503436,52.9545349 C205.503436,50.8620349 204.93675,49.1415698 203.801808,47.7947093 C202.668436,46.4478488 201.128494,45.7744186 199.183552,45.7744186 C197.246459,45.7744186 195.712797,46.4509884 194.584134,47.8009884 C193.453901,49.1525581 192.890355,50.8698837 192.890355,52.9545349 L192.890355,53.2418023 Z M195.456924,52.9545349 C195.456924,51.4789535 195.769308,50.2482558 196.394076,49.2671512 C197.020413,48.2860465 197.949715,47.7947093 199.183552,47.7947093 C200.41739,47.7947093 201.349831,48.2860465 201.985587,49.2671512 C202.618203,50.2482558 202.935297,51.4789535 202.935297,52.9545349 L202.935297,53.2418023 C202.935297,54.7362209 202.618203,55.9700581 201.985587,56.9417442 C201.349831,57.915 200.425238,58.4016279 199.208669,58.4016279 C197.966983,58.4016279 197.031401,57.915 196.401924,56.9417442 C195.770878,55.9700581 195.456924,54.7362209 195.456924,53.2418023 L195.456924,52.9545349 Z M208.128087,53.2418023 C208.128087,55.3358721 208.693203,57.0531977 209.821866,58.3953488 C210.952099,59.7375 212.49361,60.4077907 214.447971,60.4077907 C216.385064,60.4077907 217.918727,59.7390698 219.04739,58.4016279 C220.177622,57.064186 220.741169,55.3437209 220.741169,53.2418023 L220.741169,52.9545349 C220.741169,50.8620349 220.174483,49.1415698 219.04111,47.7947093 C217.907738,46.4478488 216.367797,45.7744186 214.421285,45.7744186 C212.484192,45.7744186 210.952099,46.4509884 209.821866,47.8009884 C208.693203,49.1525581 208.128087,50.8698837 208.128087,52.9545349 L208.128087,53.2418023 Z M210.694657,52.9545349 C210.694657,51.4789535 211.00861,50.2482558 211.633378,49.2671512 C212.259715,48.2860465 213.189017,47.7947093 214.421285,47.7947093 C215.655122,47.7947093 216.589134,48.2860465 217.22332,49.2671512 C217.857506,50.2482558 218.174599,51.4789535 218.174599,52.9545349 L218.174599,53.2418023 C218.174599,54.7362209 217.857506,55.9700581 217.22332,56.9417442 C216.589134,57.915 215.664541,58.4016279 214.447971,58.4016279 C213.206285,58.4016279 212.269134,57.915 211.639657,56.9417442 C211.01018,55.9700581 210.694657,54.7362209 210.694657,53.2418023 L210.694657,52.9545349 Z M224.864948,41.8264535 L224.864948,58.1284884 L222.741052,58.4926744 L222.741052,60.1346512 L229.556983,60.1346512 L229.556983,58.4926744 L227.433087,58.1284884 L227.433087,39.8077326 L222.741052,39.8077326 L222.741052,41.4622674 L224.864948,41.8264535 Z M242.422797,47.3520349 C241.85925,46.8559884 241.151285,46.4698256 240.298901,46.1919767 C239.448087,45.9141279 238.488959,45.7744186 237.419948,45.7744186 C235.856459,45.7744186 234.586517,46.1794186 233.608552,46.9862791 C232.630587,47.7947093 232.14239,48.7726744 232.14239,49.9186047 C232.14239,51.0127326 232.577215,51.8823837 233.445297,52.5244186 C234.314948,53.1680233 235.603727,53.6766279 237.316343,54.0486628 C238.514076,54.3186628 239.328785,54.6357558 239.758901,54.9999419 C240.189017,55.3656977 240.404076,55.8303488 240.404076,56.3954651 C240.404076,56.9935465 240.145064,57.4786047 239.62861,57.8475 C239.112157,58.2163953 238.397913,58.4016279 237.484308,58.4016279 C236.955297,58.4016279 236.435703,58.340407 235.928669,58.2195349 C235.420064,58.097093 235.018203,57.9024419 234.723087,57.6324419 L234.241169,55.7440116 L232.311924,55.7440116 L232.324483,58.9620349 C232.993203,59.4313953 233.754541,59.7893023 234.605355,60.0373256 C235.456169,60.2837791 236.416866,60.4077907 237.484308,60.4077907 C239.118436,60.4077907 240.44018,60.0216279 241.45268,59.2477326 C242.46518,58.475407 242.970645,57.462907 242.970645,56.2118023 C242.970645,55.1098256 242.53582,54.229186 241.667738,53.5730233 C240.799657,52.9184302 239.474773,52.3988372 237.693087,52.0173837 C236.495355,51.7646512 235.699483,51.4789535 235.30861,51.1571512 C234.917738,50.8353488 234.723087,50.3973837 234.723087,49.8401163 C234.723087,49.2765698 234.944424,48.7946512 235.387099,48.3943605 C235.829773,47.9940698 236.507913,47.7947093 237.419948,47.7947093 C238.019599,47.7947093 238.55489,47.884186 239.028959,48.0615698 C239.503029,48.2405233 239.895471,48.4775581 240.207855,48.7726744 L240.625413,50.4664535 L242.553087,50.4664535 L242.422797,47.3520349 Z" id="Fill-5" fill="#1A1919"></path>
        <path d="M130.951099,9.13918605 L128.827203,9.13918605 L128.827203,10.7937209 L130.951099,11.1594767 L130.951099,26.1052326 L128.827203,26.4694186 L128.827203,28.1113953 L137.949122,28.1113953 C139.876797,28.1113953 141.40575,27.6530233 142.534413,26.7362791 C143.664645,25.8195349 144.228192,24.4930814 144.228192,22.7553488 C144.228192,21.5921512 143.898541,20.5718023 143.239238,19.6943023 C142.578366,18.8168023 141.67889,18.2563953 140.540808,18.0130814 C141.418308,17.6912791 142.124703,17.1983721 142.658424,16.5343605 C143.193715,15.8687791 143.460576,15.1152907 143.460576,14.2738953 C143.460576,12.5612791 142.901738,11.2787791 141.785634,10.4232558 C140.669529,9.56773256 139.121738,9.13918605 137.140692,9.13918605 L130.951099,9.13918605 Z M138.339994,19.2123837 C139.459238,19.2123837 140.291215,19.5294767 140.834355,20.162093 C141.377494,20.7962791 141.649064,21.6706395 141.649064,22.7820349 C141.649064,23.8416279 141.325692,24.6610465 140.678948,25.2387209 C140.030634,25.8163953 139.121738,26.1052326 137.949122,26.1052326 L133.517669,26.1052326 L133.517669,19.2123837 L138.339994,19.2123837 Z M133.517669,11.1594767 L137.140692,11.1594767 C138.357262,11.1594767 139.286564,11.4122093 139.928599,11.920814 C140.572203,12.4294186 140.892436,13.1954651 140.892436,14.2205233 C140.892436,15.1419767 140.608308,15.8625 140.040052,16.3836628 C139.470227,16.9048256 138.726157,17.1795349 137.804703,17.2046512 L133.517669,17.2046512 L133.517669,11.1594767 Z M148.978308,16.0320349 L148.978308,26.1052326 L146.854413,26.4694186 L146.854413,28.1113953 L153.668773,28.1113953 L153.668773,26.4694186 L151.544878,26.1052326 L151.544878,18.0130814 C151.79761,17.4401163 152.153948,16.9943023 152.61389,16.6772093 C153.073831,16.3601163 153.643657,16.2015698 154.320227,16.2015698 L155.78011,16.2800581 L156.11918,13.8955814 C156.006157,13.8610465 155.842901,13.8280814 155.630983,13.7982558 C155.417494,13.7668605 155.210285,13.7511628 155.010924,13.7511628 C154.255866,13.7511628 153.584006,13.9568023 152.998483,14.3649419 C152.41139,14.7730814 151.918483,15.3366279 151.519762,16.0587209 L151.271738,14.0117442 L146.854413,14.0117442 L146.854413,15.6678488 L148.978308,16.0320349 Z M170.719587,28.1113953 L170.719587,26.4694186 L169.677262,26.3265698 C169.658424,26.1523256 169.649006,25.9780814 169.644297,25.805407 C169.639587,25.6311628 169.638017,25.4537791 169.638017,25.2701163 L169.638017,18.4824419 C169.638017,16.9613372 169.141971,15.7934302 168.151448,14.9771512 C167.162494,14.1608721 165.867436,13.7511628 164.269413,13.7511628 C163.200401,13.7511628 162.209878,13.9065698 161.297843,14.2142442 C160.385808,14.5234884 159.608773,14.9331977 158.965169,15.4465116 L158.965169,18.1826163 L160.946215,18.1826163 L161.219355,16.6960465 C161.52389,16.4103488 161.921041,16.1843023 162.412378,16.0194767 C162.902145,15.8546512 163.470401,15.7714535 164.112436,15.7714535 C165.041738,15.7714535 165.766971,16.0131977 166.288134,16.4951163 C166.809297,16.9770349 167.069878,17.6300581 167.069878,18.4557558 L167.069878,20.0977326 L164.42482,20.0977326 C162.539529,20.0977326 161.057669,20.4603488 159.976099,21.1855814 C158.894529,21.910814 158.352959,22.9421512 158.352959,24.2811628 C158.352959,25.5840698 158.735983,26.5934302 159.500459,27.3092442 C160.264936,28.0266279 161.381041,28.3845349 162.848773,28.3845349 C163.691738,28.3845349 164.484471,28.174186 165.226971,27.7534884 C165.969471,27.3312209 166.587959,26.8037791 167.084006,26.169593 C167.101273,26.4741279 167.131099,26.7786628 167.175052,27.0816279 C167.217436,27.3861628 167.278657,27.7283721 167.357145,28.1113953 L170.719587,28.1113953 Z M161.494064,25.7457558 C161.111041,25.420814 160.919529,24.9498837 160.919529,24.3329651 C160.919529,23.6375581 161.227203,23.0473256 161.839413,22.5606977 C162.451622,22.0740698 163.283599,21.8307558 164.333773,21.8307558 L167.069878,21.8307558 L167.069878,24.1508721 C166.766913,24.7238372 166.263017,25.2136047 165.559762,25.6217442 C164.854936,26.0314535 164.077901,26.2355233 163.227087,26.2355233 C162.453192,26.2355233 161.875517,26.0722674 161.494064,25.7457558 Z M173.122901,28.1113953 L179.937262,28.1113953 L179.937262,26.4694186 L177.813366,26.1052326 L177.813366,14.0117442 L173.122901,14.0117442 L173.122901,15.6678488 L175.246797,16.0320349 L175.246797,26.1052326 L173.122901,26.4694186 L173.122901,28.1113953 Z M175.246797,10.4028488 L177.813366,10.4028488 L177.813366,7.78447674 L175.246797,7.78447674 L175.246797,10.4028488 Z M181.781738,28.1113953 L188.596099,28.1113953 L188.596099,26.4694186 L186.472203,26.1052326 L186.472203,17.8309884 C186.811273,17.2140698 187.264936,16.7274419 187.833192,16.3711047 C188.403017,16.0147674 189.056041,15.8373837 189.795401,15.8373837 C190.803192,15.8373837 191.551971,16.0979651 192.043308,16.6191279 C192.533076,17.1402907 192.779529,18.0209302 192.779529,19.264186 L192.779529,26.1052326 L190.655634,26.4694186 L190.655634,28.1113953 L197.469994,28.1113953 L197.469994,26.4694186 L195.346099,26.1052326 L195.346099,19.2123837 C195.346099,17.3522093 194.928541,15.9786628 194.094994,15.0870349 C193.261448,14.1969767 192.084122,13.7511628 190.563017,13.7511628 C189.660401,13.7511628 188.85511,13.9583721 188.147145,14.3712209 C187.43918,14.7840698 186.850517,15.363314 186.381157,16.1105233 L186.199064,14.0117442 L181.781738,14.0117442 L181.781738,15.6678488 L183.905634,16.0320349 L183.905634,26.1052326 L181.781738,26.4694186 L181.781738,28.1113953 Z M213.034238,28.1113953 L213.034238,23.9279651 L210.844413,23.9279651 L210.649762,26.1052326 L204.056738,26.1052326 L204.056738,11.1594767 L206.180634,10.7937209 L206.180634,9.13918605 L204.056738,9.13918605 L201.488599,9.13918605 L199.364703,9.13918605 L199.364703,10.7937209 L201.488599,11.1594767 L201.488599,26.1052326 L199.364703,26.4694186 L199.364703,28.1113953 L213.034238,28.1113953 Z M215.489355,28.1113953 L222.305285,28.1113953 L222.305285,26.4694186 L220.18139,26.1052326 L220.18139,14.0117442 L215.489355,14.0117442 L215.489355,15.6678488 L217.61325,16.0320349 L217.61325,26.1052326 L215.489355,26.4694186 L215.489355,28.1113953 Z M217.61482,10.4028488 L220.18139,10.4028488 L220.18139,7.78447674 L217.61482,7.78447674 L217.61482,10.4028488 Z M224.148192,28.1113953 L230.962552,28.1113953 L230.962552,26.4694186 L228.838657,26.1052326 L228.838657,17.8309884 C229.177727,17.2140698 229.63139,16.7274419 230.201215,16.3711047 C230.769471,16.0147674 231.424064,15.8373837 232.161855,15.8373837 C233.169645,15.8373837 233.918424,16.0979651 234.409762,16.6191279 C234.901099,17.1402907 235.145983,18.0209302 235.145983,19.264186 L235.145983,26.1052326 L233.022087,26.4694186 L233.022087,28.1113953 L239.836448,28.1113953 L239.836448,26.4694186 L237.712552,26.1052326 L237.712552,19.2123837 C237.712552,17.3522093 237.296564,15.9786628 236.461448,15.0870349 C235.627901,14.1969767 234.450576,13.7511628 232.931041,13.7511628 C232.026855,13.7511628 231.221564,13.9583721 230.513599,14.3712209 C229.805634,14.7840698 229.216971,15.363314 228.74761,16.1105233 L228.565517,14.0117442 L224.148192,14.0117442 L224.148192,15.6678488 L226.272087,16.0320349 L226.272087,26.1052326 L224.148192,26.4694186 L224.148192,28.1113953 Z M243.73889,9.80319767 L243.73889,26.1052326 L241.614994,26.4694186 L241.614994,28.1113953 L248.430924,28.1113953 L248.430924,26.4694186 L246.305459,26.1052326 L246.305459,21.6094186 L247.98668,21.6094186 L251.727436,26.2998837 L250.410401,26.4694186 L250.410401,28.1113953 L256.260924,28.1113953 L256.260924,26.4694186 L254.658192,26.1570349 L250.137262,20.4368023 L253.851331,16.0069186 L255.570227,15.6678488 L255.570227,14.0117442 L249.667901,14.0117442 L249.667901,15.6678488 L250.95825,15.8373837 L247.947436,19.5640116 L246.305459,19.5640116 L246.305459,7.78447674 L241.614994,7.78447674 L241.614994,9.43901163 L243.73889,9.80319767 Z M269.11575,15.3287791 C268.550634,14.8327326 267.842669,14.4465698 266.991855,14.1687209 C266.139471,13.8908721 265.180343,13.7511628 264.111331,13.7511628 C262.547843,13.7511628 261.277901,14.1561628 260.299936,14.9630233 C259.323541,15.7714535 258.835343,16.7494186 258.835343,17.8953488 C258.835343,18.9894767 259.268599,19.8591279 260.13825,20.5011628 C261.006331,21.1447674 262.29668,21.6533721 264.007727,22.025407 C265.207029,22.295407 266.020169,22.6125 266.450285,22.976686 C266.880401,23.3424419 267.095459,23.807093 267.095459,24.3722093 C267.095459,24.9702907 266.836448,25.4553488 266.319994,25.8242442 C265.803541,26.1931395 265.089297,26.3783721 264.177262,26.3783721 C263.64668,26.3783721 263.128657,26.3171512 262.620052,26.1962791 C262.111448,26.0738372 261.709587,25.879186 261.414471,25.609186 L260.932552,23.7207558 L259.003308,23.7207558 L259.017436,26.9387791 C259.686157,27.4081395 260.445924,27.7660465 261.296738,28.0140698 C262.149122,28.2605233 263.10825,28.3845349 264.177262,28.3845349 C265.80982,28.3845349 267.133134,27.9983721 268.144064,27.2244767 C269.156564,26.4521512 269.662029,25.4396512 269.662029,24.1885465 C269.662029,23.0865698 269.228773,22.2059302 268.359122,21.5497674 C267.491041,20.8951744 266.166157,20.3755814 264.386041,19.9941279 C263.186738,19.7413953 262.392436,19.4541279 262.001564,19.1338953 C261.610692,18.812093 261.414471,18.3741279 261.414471,17.8168605 C261.414471,17.253314 261.635808,16.7713953 262.078483,16.3711047 C262.522727,15.970814 263.199297,15.7714535 264.111331,15.7714535 C264.710983,15.7714535 265.247843,15.8609302 265.720343,16.038314 C266.194413,16.2172674 266.586855,16.4543023 266.900808,16.7494186 L267.316797,18.4431977 L269.246041,18.4431977 L269.11575,15.3287791 Z" id="Fill-7" fill="#1A1919"></path>
        <polygon id="Path" fill="#B01D32" points="114.944023 9.13918605 112.12943 9.13918605 105.170651 29.740814 107.985244 29.740814"></polygon>
        <polygon id="Path" fill="#B01D32" points="120.552802 9.13918605 117.738209 9.13918605 110.781 29.740814 113.595593 29.740814"></polygon>
    </g>
</svg>