<?xml version="1.0" encoding="utf-8"?>
<!-- Generator: Adobe Illustrator 27.5.0, SVG Export Plug-In . SVG Version: 6.00 Build 0)  -->
<svg version="1.1" xmlns="http://www.w3.org/2000/svg" xmlns:xlink="http://www.w3.org/1999/xlink" x="0px" y="0px"
	 viewBox="0 0 970.9 555.7" style="enable-background:new 0 0 970.9 555.7;" xml:space="preserve">
<style type="text/css">
	.st0{display:none;}
	.st1{display:inline;fill:#765A5A;}
	.st2{display:inline;}
	.st3{fill:#6E9B9C;}
	.st4{fill:#FFFFFF;}
	.st5{fill:#C0D8D8;}
	.st6{display:inline;fill:#CD5F30;stroke:#FFFFFF;stroke-miterlimit:10;}
	.st7{fill:#EABC4C;}
	.st8{fill:#CD5F30;stroke:#FFFFFF;stroke-width:3.2;stroke-linejoin:round;stroke-miterlimit:10;}
	.st9{fill:#050504;}
	.st10{fill:none;}
	.st11{fill:#FBBE40;}
	.st12{fill:#B8B9DA;}
	.st13{fill:#010200;}
	.st14{fill:#8788C0;}
	.st15{display:none;fill:#222221;stroke:#222221;stroke-width:3;stroke-miterlimit:10;}
	.st16{fill:#222221;stroke:#222221;stroke-width:3;stroke-miterlimit:10;}
	.st17{font-family:'Eurostile-Reg';}
	.st18{font-size:30.4px;}
	.st19{display:none;fill:#A3A3A3;}
	.st20{display:inline;fill:none;stroke:#C6362E;stroke-width:5;stroke-linejoin:round;stroke-miterlimit:10;}
	.st21{display:inline;fill:#6E9B9C;stroke:#FFFFFF;stroke-width:3.2;stroke-linejoin:round;stroke-miterlimit:10;}
	.st22{display:inline;fill:#C0D8D8;stroke:#FFFFFF;stroke-width:3.2;stroke-linejoin:round;stroke-miterlimit:10;}
	.st23{display:inline;fill:#CD5F30;stroke:#FFFFFF;stroke-width:3.2;stroke-linejoin:round;stroke-miterlimit:10;}
	.st24{display:inline;fill:#EABC4C;stroke:#FFFFFF;stroke-width:3.2;stroke-linejoin:round;stroke-miterlimit:10;}
	.st25{display:inline;fill:#81B0C5;stroke:#050504;stroke-width:3;stroke-miterlimit:10;}
	.st26{display:inline;fill:none;stroke:#050504;stroke-width:3;stroke-miterlimit:10;}
	.st27{fill:#232422;}
	.st28{font-family:'AgencyFB-Bold';}
	.st29{font-size:128.2877px;}
	.st30{font-size:56.5682px;}
	.st31{fill:#D27296;}
	.st32{letter-spacing:1;}
	.st33{fill:#BDBDBD;}
	.st34{opacity:0.15;fill:none;stroke:#222221;stroke-width:1.5;stroke-miterlimit:10;}
</style>
<g id="Ebene_7" class="st0">
	<rect x="-328.7" y="-382.6" class="st1" width="1615.8" height="798"/>
	<rect x="-328.7" y="368.9" class="st1" width="1615.8" height="1250.5"/>
</g>
<g id="Ebene_1_Kopie" class="st0">
	<g class="st2">
		<polygon class="st3" points="181.5,373.2 181.5,319.8 221.1,346.4 221.1,399.9 		"/>
		<path class="st4" d="M182,320.7l38.6,26v52.2L182,373V320.7 M181,318.8v54.6l40.6,27.3v-54.6L181,318.8L181,318.8z"/>
	</g>
	<g class="st2">
		<polygon class="st5" points="344.3,373.5 384,346.8 423.7,373.5 384,400.2 		"/>
		<path class="st4" d="M384,347.4l38.8,26.1L384,399.6l-38.8-26.1L384,347.4 M384,346.2l-40.6,27.3l40.6,27.3l40.6-27.3L384,346.2
			L384,346.2z"/>
	</g>
	<g class="st2">
		<polygon class="st5" points="344.3,73 384,46.3 423.7,73 384,99.7 		"/>
		<path class="st4" d="M384,46.9L422.8,73L384,99.1L345.2,73L384,46.9 M384,45.7L343.4,73l40.6,27.3L424.6,73L384,45.7L384,45.7z"/>
	</g>
	<g class="st2">
		<polygon class="st3" points="100.4,154.7 100.4,101.3 140,127.9 140,181.3 		"/>
		<path class="st4" d="M100.9,102.2l38.6,26v52.2l-38.6-26V102.2 M99.9,100.3V155l40.6,27.3v-54.6L99.9,100.3L99.9,100.3z"/>
	</g>
	<g class="st2">
		<polygon class="st7" points="526.3,346.4 565.9,319.8 565.9,373.2 526.3,399.9 		"/>
		<path class="st4" d="M565.4,320.7V373l-38.6,26v-52.2L565.4,320.7 M566.4,318.8l-40.6,27.3v54.6l40.6-27.3V318.8L566.4,318.8z"/>
	</g>
	<g class="st2">
		<polygon class="st7" points="181.5,483 221.1,456.4 221.1,509.8 181.5,536.4 		"/>
		<path class="st4" d="M220.6,457.3v52.2l-38.6,26v-52.2L220.6,457.3 M221.6,455.4L181,482.7v54.6l40.6-27.3V455.4L221.6,455.4z"/>
	</g>
	<g class="st2">
		<polygon class="st7" points="384.5,318.2 424.1,291.6 424.1,345 384.5,371.6 		"/>
		<path class="st4" d="M423.6,292.5v52.2l-38.6,26v-52.2L423.6,292.5 M424.6,290.6L384,317.9v54.6l40.6-27.3V290.6L424.6,290.6z"/>
	</g>
</g>
<g id="Ebene_13" class="st0">
</g>
<g id="Bildmarke_Anpassung_Frame_1" class="st0">
	<g id="Würfel_Bottom_Kopie_2_Kopie_3" class="st2">
		<g>
			<polygon class="st3" points="220,347 220,397.8 183.8,373.4 182.7,372.6 182.7,321.9 192.1,328.2 218.9,346.2 218.9,346.2 			"/>
			<path class="st4" d="M218.9,346.2L218.9,346.2l1.2,0.8L218.9,346.2z"/>
		</g>
		<g>
			<polygon class="st5" points="346.3,373.5 382.4,349.2 382.4,397.8 			"/>
			<polygon class="st5" points="423,372.4 423,372.6 421.8,373.4 421.7,373.5 385.6,397.8 385.6,347.2 			"/>
			<path class="st4" d="M386.9,346.2L386.9,346.2l-1.3,0.8v2.2l36.1,24.3l0.1-0.1l1.2-0.8v-2.2L386.9,346.2z"/>
		</g>
		<g>
			<polygon class="st5" points="97,100.3 59.3,125.7 21.6,100.3 59.3,74.9 			"/>
		</g>
		<g>
			<polygon class="st5" points="624.7,182.3 586.9,207.7 549.2,182.3 586.9,156.9 			"/>
		</g>
		<g>
			<polygon class="st3" points="382.4,73.9 382.4,124.6 345,99.5 345,48.7 			"/>
		</g>
		<g>
			<polygon class="st7" points="423,321.9 423,372.6 421.8,373.4 421.7,373.5 385.6,397.8 385.6,347 386.8,346.2 386.9,346.2 			"/>
		</g>
		<g>
			<polygon class="st7" points="747.7,48.7 747.7,99.5 710.3,124.6 710.3,73.9 			"/>
		</g>
		<g>
			<polygon class="st5" points="221.6,344.2 183.9,318.9 221.6,293.5 259.4,318.9 			"/>
		</g>
	</g>
	<g id="Koordinaten_Kopie_2_Kopie_3" class="st2">
		<g>
			<path class="st9" d="M165,200.6l-8.8,5.9v-13.7l10.2-6.8v11.9l15.1,10.1c-0.4-0.1-0.8,0-1.1,0.1c-0.5,0.3-0.8,0.8-0.8,1.4v0.7
				L165,200.6z"/>
		</g>
		<g>
			<path class="st9" d="M313,101l-8.7,5.8v19.8l-0.6-0.4c-0.5-0.4-1.2-0.4-1.8,0l-0.6,0.4v-19.8l-8.6-5.8l10.1-6.8L313,101z"/>
		</g>
		<g>
			<path class="st9" d="M425.5,208.3l-0.8-0.5l14.6-9.8V186l10.2,6.8v13.7l-8.8-5.9l-14.8,9.9c0.2-0.3,0.3-0.6,0.3-1
				C426.2,209.1,425.9,208.6,425.5,208.3z"/>
		</g>
		<g>
			<path class="st9" d="M260.9,317.9C260.9,317.9,260.9,317.9,260.9,317.9c-0.2,0.2-0.3,0.5-0.3,0.7c0,0.1,0,0.1,0,0.2v2.9
				l-37.4,25.2l-1.2,0.8l-0.4,0.3l-1.6,1.1l-36.2,24.4l-1.4,1l-1.4,1l-14.6,9.8V397l-10.2-6.8v-13.7l8.8,5.9l14.4-9.7l1.6-1.1
				l1.6-1.1l36.2-24.4l0,0l1.4-1l1.4-1L260.9,317.9L260.9,317.9z"/>
		</g>
		<g>
			<path class="st9" d="M313,482l-10.2,6.8l-10.1-6.8l8.6-5.8v-19.9l0.6,0.4c0.1,0,0.1,0.1,0.2,0.1c0.1,0,0.1,0.1,0.2,0.1
				c0.1,0,0.2,0.1,0.3,0.1c0.1,0,0.2,0,0.2,0c0.1,0,0.2,0,0.2,0c0.1,0,0.2,0,0.3-0.1c0.1,0,0.1,0,0.2-0.1c0.1,0,0.1,0,0.1-0.1l0,0
				l0.6-0.4v19.9L313,482z"/>
		</g>
		<g>
			<path class="st9" d="M490.5,404.2v13.7l-10.2,6.8v-11.9l-55.7-37.5l-1.4-1l-1.4-1l-36.2-24.4L384,348l-1.4-0.9l-0.2-0.2l-1.2-0.8
				l-37.7-25.4l0.8-0.5c0.4-0.3,0.7-0.8,0.7-1.3c0-0.3-0.1-0.7-0.3-0.9l39.2,26.4l0.5,0.3l1,0.7l1.4,1l36.2,24.4l1.6,1.1l1.3,0.9
				l0,0l0.3,0.2l55.5,37.4L490.5,404.2z"/>
		</g>
	</g>
	<g id="Würfel_Top_Kopie_2_Kopie_2_Kopie_3" class="st2">
		<g>
			<polygon class="st7" points="218.8,510.1 181.1,535.4 143.3,510.1 181.1,484.7 			"/>
		</g>
		<g>
			<polygon class="st5" points="421.7,209.6 384,235 346.3,209.6 384,184.2 			"/>
			<path class="st4" d="M381.2,237l1.2,0.8v0L381.2,237z"/>
		</g>
		<g>
			<polygon class="st5" points="340.5,155 304.3,179.3 302.8,180.3 301.3,179.3 265.1,155 301.3,130.6 302.8,129.6 304.3,130.6 			
				"/>
		</g>
		<g>
			<polygon class="st3" points="301.2,183.1 301.2,233.9 290.2,226.5 263.8,208.7 263.8,158 			"/>
		</g>
		<g>
			<polygon class="st3" points="385.6,239.9 423,265.1 423,315.8 385.6,290.7 			"/>
		</g>
		<g>
			<polygon class="st7" points="382.4,237.8 382.4,288.5 346.2,264.2 345,263.4 345,212.6 381.2,237 381.2,237 			"/>
		</g>
		<g>
			<polygon class="st3" points="182.7,212.6 220,237.8 220,288.5 182.7,263.4 			"/>
		</g>
		<g>
			<polygon class="st7" points="223.2,183.1 260.6,158 260.6,208.7 223.2,233.9 			"/>
		</g>
		<g>
			<polygon class="st5" points="340.5,264.2 304.3,288.6 302.8,289.6 301.3,288.6 265.1,264.2 301.3,239.8 302.8,238.8 304.3,239.8 
							"/>
		</g>
		<g>
			<polygon class="st5" points="340.5,318.9 304.3,343.2 302.8,344.2 301.3,343.2 301.3,343.2 274.7,325.4 265.1,318.9 301.3,294.5 
				302.8,293.5 304.3,294.5 			"/>
			<path class="st4" d="M274.7,325.4l26.6,17.9v0L274.7,325.4z"/>
		</g>
		<polygon class="st3" points="301.2,401.7 301.2,452.4 263.8,427.3 263.8,376.5 		"/>
		<g>
			<polygon class="st3" points="98.3,319.7 98.3,370.5 60.9,345.3 60.9,294.5 			"/>
		</g>
		<g>
			<polygon class="st3" points="869.4,183.1 869.4,233.9 832,208.7 832,158 			"/>
		</g>
		<g>
			<polygon class="st7" points="57.7,403.8 57.7,454.6 20.3,479.8 20.3,429 			"/>
		</g>
		<g>
			<polygon class="st7" points="341.8,376.5 341.8,427.3 304.4,452.4 304.4,401.7 			"/>
		</g>
		<g>
			<polygon class="st7" points="343.4,207.7 305.7,182.3 343.4,156.9 381.1,182.3 			"/>
		</g>
		<polygon class="st3" points="263.8,321.9 263.8,372.6 263.8,372.6 290.2,390.4 301.2,397.8 301.2,347 		"/>
		<g>
			<polygon class="st7" points="262.2,262.3 224.5,236.9 262.2,211.5 262.2,211.5 299.9,236.9 			"/>
		</g>
	</g>
</g>
<g id="Bildmarke_Anpassung_Frame_2" class="st0">
	<g id="Würfel_Bottom_Kopie_2_Kopie_4" class="st2">
		<g>
			<polygon class="st7" points="182.7,321.9 182.7,370.6 181.1,371.7 181.1,373.5 182.4,374.4 183.8,373.4 220,397.8 220,349.1 
				221.6,348 221.6,347.8 221.6,346.2 220.3,345.3 218.9,346.2 218.9,346.2 205.5,337.2 			"/>
			<path class="st4" d="M182.7,372.6v-2l-1.6,1.1l-1.6,1.1v0.7c0,0.5,0.3,1,0.7,1.3l0.8,0.5l1.4-1l1.4-1L182.7,372.6z M223,345.3
				c-0.1-0.2-0.2-0.3-0.4-0.4l-0.8-0.5l-1.4,1l-1.4,1l0,0l1.2,0.8v2l1.6-1.1l0.4-0.3l1.2-0.8v-0.7
				C223.2,345.8,223.1,345.5,223,345.3z"/>
		</g>
		<g>
			<polygon class="st5" points="346.3,373.5 382.4,349.2 382.4,397.8 			"/>
			<polygon class="st5" points="424.6,373.5 423.2,374.4 421.8,373.4 421.7,373.5 385.6,397.8 385.6,349.1 384,348 382.6,347.1 
				384,346.2 385.6,347.2 423,372.4 			"/>
			<path class="st5" d="M385.6,349.2v48.6l36.1-24.3L385.6,349.2z M346.3,373.5l36.1,24.3v-48.6L346.3,373.5z M385.6,349.2v48.6
				l36.1-24.3L385.6,349.2z M346.3,373.5l36.1,24.3v-48.6L346.3,373.5z"/>
		</g>
		<g>
			<polygon class="st5" points="221.6,344.2 183.9,318.9 221.6,293.5 259.4,318.9 			"/>
			<path class="st5" d="M260.9,319.7L223,345.3l-1.3,0.9l-1.3-0.9l1.4-1l38.9-26.2v0.7C260.6,319.2,260.7,319.5,260.9,319.7z"/>
			<path class="st10" d="M205.5,337.2l-22.8-15.3 M261.3,320.2c-0.2-0.1-0.3-0.3-0.4-0.4c-0.2-0.3-0.3-0.6-0.3-0.9v-0.7l-38.9,26.2
				l-1.4,1l-1.4,1l1.2,0.8l0.7,0.5c0.3,0.2,0.6,0.3,0.9,0.3c0.1,0,0.3,0,0.4-0.1l1.2-0.8l38.9-26.2L261.3,320.2z"/>
		</g>
		<g>
			<polygon class="st5" points="421.7,45.7 384,71.1 346.3,45.7 384,20.3 			"/>
		</g>
		<g>
			<polygon class="st5" points="97,428.1 59.3,453.5 21.6,428.1 59.3,402.7 			"/>
		</g>
		<g>
			<polygon class="st5" points="827.6,154.9 789.9,180.3 752.1,154.9 789.9,129.6 			"/>
		</g>
		<g>
			<polygon class="st3" points="138.9,128.5 138.9,179.3 101.5,154.1 101.5,103.3 			"/>
		</g>
		<g>
			<polygon class="st7" points="424.6,371.7 424.6,373.5 423.2,374.4 421.8,373.4 421.7,373.5 385.6,397.8 385.6,349.1 384,348 
				384,346.2 385.3,345.3 386.8,346.2 386.9,346.2 423,321.9 423,370.6 			"/>
			<path class="st4" d="M425.9,372.6L425.9,372.6l-1.3-0.9l-1.6-1.1v2l-1.2,0.8l1.4,1l1.4,1l0.8-0.5c0.4-0.3,0.7-0.8,0.7-1.3v-0.7
				L425.9,372.6z M385.3,345.3l-1-0.7l-0.5-0.3l-0.8,0.5c-0.4,0.3-0.7,0.8-0.7,1.3v0.7l0.2,0.2l1.4,0.9l1.6,1.1v-2l1.2-0.8
				L385.3,345.3z"/>
		</g>
		<g>
			<polygon class="st7" points="98.3,267.2 98.3,318 60.9,343.2 60.9,292.4 			"/>
		</g>
		<g>
			<polygon class="st7" points="220,21.4 220,72.2 182.6,97.3 182.6,46.5 			"/>
		</g>
	</g>
	<g id="Koordinaten_Kopie_2_Kopie_4" class="st2">
		<g>
			<g>
				<path class="st9" d="M179.5,210.3v-0.7c0-0.4,0.1-0.7,0.4-1c0,0,0.1-0.1,0.1-0.1c0.1,0,0.1-0.1,0.2-0.1c0,0,0,0,0,0l0.8-0.5
					l-14.6-9.8V186l-10.2,6.8v13.7l8.8-5.9L179.5,210.3z"/>
			</g>
			<g>
				<path class="st9" d="M292.7,101l8.6,5.8v19.8l0.6-0.4c0.5-0.4,1.2-0.4,1.8,0l0.6,0.4v-19.8l8.7-5.8l-10.2-6.8L292.7,101z"/>
			</g>
			<g>
				<path class="st9" d="M262.1,320.7l-38.9,26.2l-1.2,0.8l-0.4,0.3l-1.6,1.1l-36.2,24.4l-1.4,1l-1.4,1l-14.6,9.8V397l-10.2-6.8
					v-13.7l8.8,5.9l14.4-9.7l1.6-1.1l1.6-1.1l36.2-24.4l0,0l1.4-1l1.4-1l38.9-26.2v0.7c0,0.3,0.1,0.6,0.3,0.9
					c0.1,0.2,0.3,0.3,0.4,0.4L262.1,320.7z"/>
			</g>
			<g>
				<path class="st9" d="M304.3,456c-0.1,0.4-0.4,0.7-0.8,0.9c-0.2,0.1-0.5,0.2-0.8,0.2c-0.3,0-0.6-0.1-0.9-0.3l-0.6-0.4v19.9
					l-8.6,5.8l10.1,6.8L313,482l-8.7-5.8V456z"/>
			</g>
			<g>
				<path class="st9" d="M426.2,209.6v0.7l14.4-9.7l8.8,5.9v-13.7l-10.2-6.8v11.9l-14.6,9.8l0.8,0.5
					C425.9,208.6,426.2,209.1,426.2,209.6z"/>
			</g>
			<g>
				<polygon class="st9" points="481.7,410.1 426.2,372.8 425.9,372.6 425.9,372.6 424.6,371.7 423,370.6 386.8,346.2 385.3,345.3 
					384.4,344.6 383.9,344.3 345,318.1 345,321.7 381.2,346.1 382.4,346.9 382.6,347.1 384,348 385.6,349.1 421.8,373.4 
					423.2,374.4 424.7,375.4 480.4,412.9 480.4,424.7 490.5,417.9 490.5,404.2 				"/>
			</g>
		</g>
	</g>
	<g id="Würfel_Top_Kopie_2_Kopie_2_Kopie_4" class="st2">
		<g>
			<polygon class="st3" points="263.8,158 301.2,183.1 301.2,233.9 263.8,208.7 			"/>
		</g>
		<g>
			<polygon class="st7" points="304.3,288.6 340.5,264.2 330.9,257.7 304.3,239.8 304.3,239.8 302.8,238.8 301.3,239.8 265.1,264.2 
				301.3,288.6 302.8,289.6 			"/>
			<path class="st10" d="M304.3,288.6l-1.5,1 M304.3,288.6l-1.5,1 M304.3,288.6l-1.5,1 M304.3,288.6l-1.5,1 M304.3,288.6l-1.5,1
				 M304.3,288.6l-1.5,1 M304.3,288.6l-1.5,1 M304.3,288.6l-1.5,1 M304.3,288.6l-1.5,1 M304.3,288.6l-1.5,1 M304.3,288.6l-1.5,1
				 M304.3,288.6l-1.5,1 M304.3,288.6l-1.5,1 M304.3,288.6l-1.5,1 M304.3,288.6l-1.5,1 M304.3,239.8L304.3,239.8l26.6,17.9
				L304.3,239.8z"/>
		</g>
		<g>
			<polygon class="st7" points="219.4,455.4 181.7,480.8 143.9,455.4 181.7,430 			"/>
		</g>
		<g>
			<polygon class="st5" points="343.4,211.5 381.1,236.9 343.4,262.3 305.7,236.9 			"/>
		</g>
		<g>
			<polygon class="st5" points="340.5,155 304.3,179.3 302.8,180.3 301.3,179.3 265.1,155 301.3,130.6 302.8,129.6 304.3,130.6 			
				"/>
		</g>
		<g>
			<polygon class="st3" points="421.7,209.6 385.6,233.9 384,235 384,184.2 385.6,185.3 			"/>
			<polygon class="st3" points="423,212.6 423,261.2 386.9,236.9 			"/>
			<path class="st4" d="M384,184.2l-1.6,1.1v48.6l1.6,1.1l1.6-1.1v-48.6L384,184.2z"/>
		</g>
		<g>
			<polygon class="st3" points="385.6,239.9 423,265.1 423,315.8 385.6,290.7 			"/>
		</g>
		<g>
			<polygon class="st5" points="221.6,184.2 259.4,209.6 221.6,235 221.6,235 183.9,209.6 			"/>
			<path class="st4" d="M223.2,237.8L223.2,237.8l1.2-0.8L223.2,237.8z"/>
		</g>
		<g>
			<polygon class="st3" points="182.7,212.6 220,237.8 220,288.5 182.7,263.4 			"/>
		</g>
		<g>
			<polygon class="st7" points="260.6,263.4 259.4,264.2 223.2,288.5 223.2,237.8 224.4,237 224.4,237 260.6,212.6 			"/>
		</g>
		<g>
			<polygon class="st3" points="301.2,292.4 301.2,343.2 265,318.8 263.8,318 263.8,267.2 300,291.6 			"/>
		</g>
		<g>
			<polygon class="st5" points="421.7,209.6 385.6,233.9 384,235 382.4,233.9 346.3,209.6 382.4,185.3 384,184.2 385.6,185.3 			"/>
		</g>
		<g>
			<polygon class="st3" points="301.2,401.7 301.2,452.4 263.8,427.3 263.8,376.5 			"/>
		</g>
		<g>
			<polygon class="st3" points="423,483.6 423,534.4 385.6,509.2 385.6,458.4 			"/>
		</g>
		<g>
			<polygon class="st3" points="625.9,128.5 625.9,179.3 588.5,154.1 588.5,103.3 			"/>
		</g>
		<g>
			<polygon class="st7" points="341.8,267.2 341.8,318 340.6,318.8 304.4,343.2 304.4,292.4 305.6,291.6 			"/>
			<path class="st4" d="M326.5,332.2l15.3-10.3v0L326.5,332.2z"/>
		</g>
		<g>
			<polygon class="st7" points="950.6,239.9 950.6,290.7 913.2,315.8 913.2,265.1 			"/>
		</g>
		<g>
			<polygon class="st7" points="326.5,332.2 341.8,321.9 341.8,372.6 304.4,397.8 304.4,347 			"/>
			<path class="st4" d="M340.6,318.8l1.2-0.8v0L340.6,318.8z"/>
		</g>
	</g>
</g>
<g id="Bildmarke_Anpassung_MAIN">
	<g id="Würfel_Bottom_Kopie_2_Kopie_2_Kopie_Kopie_Kopie">
		<g>
			<g>
				<polygon class="st11" points="220,347 220,397.8 183.8,373.4 182.7,372.6 182.7,321.9 218.9,346.2 				"/>
			</g>
			<g>
				<polygon class="st12" points="346.3,373.5 382.4,349.2 382.4,397.8 				"/>
			</g>
			<g>
				<polygon class="st11" points="421.7,100.3 384,125.7 346.3,100.3 384,74.9 				"/>
			</g>
			<g>
				<polygon class="st12" points="746.4,155 708.7,180.3 671,155 708.7,129.6 				"/>
			</g>
			<g>
				<polygon class="st11" points="138.9,237.8 138.9,288.5 101.5,263.4 101.5,212.6 				"/>
			</g>
			<g>
				<polygon class="st11" points="423,267.2 423,318 385.6,343.2 385.6,292.4 				"/>
				<path class="st12" d="M385.6,288.5L385.6,288.5l22.8-15.3L385.6,288.5z"/>
			</g>
			<g>
				<polygon class="st11" points="423,321.9 423,372.6 421.8,373.4 421.7,373.5 385.6,397.8 385.6,347 386.8,346.2 386.8,346.2 
					386.9,346.2 413.5,328.2 				"/>
				<path class="st10" d="M413.5,328.2l-26.6,17.9 M413.5,328.2l-26.6,17.9 M413.5,328.2l-26.6,17.9 M413.5,328.2l-26.6,17.9
					 M413.5,328.2l-26.6,17.9 M413.5,328.2l-26.6,17.9 M413.5,328.2l-26.6,17.9 M413.5,328.2l-26.6,17.9 M413.5,328.2l-26.6,17.9
					 M413.5,328.2l-26.6,17.9 M413.5,328.2l-26.6,17.9 M413.5,328.2l-26.6,17.9 M413.5,328.2l-26.6,17.9 M413.5,328.2l-26.6,17.9
					 M413.5,328.2l-26.6,17.9 M413.5,328.2l-26.6,17.9 M386.8,346.2l-1.2,0.8L386.8,346.2L386.8,346.2z M386.8,346.2l-1.2,0.8
					L386.8,346.2L386.8,346.2z M386.8,346.2l-1.2,0.8L386.8,346.2L386.8,346.2z M386.8,346.2l-1.2,0.8L386.8,346.2L386.8,346.2z
					 M386.8,346.2l-1.2,0.8L386.8,346.2L386.8,346.2z M386.8,346.2l-1.2,0.8L386.8,346.2L386.8,346.2z M386.8,346.2l-1.2,0.8
					L386.8,346.2L386.8,346.2z M386.8,346.2l-1.2,0.8L386.8,346.2L386.8,346.2z M386.8,346.2l-1.2,0.8L386.8,346.2L386.8,346.2z
					 M386.8,346.2l-1.2,0.8L386.8,346.2L386.8,346.2z M386.8,346.2l-1.2,0.8L386.8,346.2L386.8,346.2z M386.8,346.2l-1.2,0.8
					L386.8,346.2L386.8,346.2z M386.8,346.2l-1.2,0.8L386.8,346.2L386.8,346.2z M386.8,346.2l-1.2,0.8L386.8,346.2L386.8,346.2z
					 M386.8,346.2l-1.2,0.8L386.8,346.2L386.8,346.2z M386.8,346.2l-1.2,0.8L386.8,346.2L386.8,346.2z"/>
			</g>
		</g>
	</g>
	<g id="Koordinaten_Kopie_2_Kopie_2_Kopie_Kopie_Kopie">
		<g>
			<g>
				<path class="st13" d="M304.3,456c-0.1,0.4-0.4,0.7-0.8,0.9c-0.2,0.1-0.5,0.2-0.8,0.2c-0.3,0-0.6-0.1-0.9-0.3l-0.6-0.4v19.9
					l-8.6,5.8l10.1,6.8L313,482l-8.7-5.8V456z"/>
			</g>
			<g>
				<path class="st13" d="M425.3,208.2c0.5,0.3,0.8,0.8,0.8,1.4v0.7l14.4-9.7l8.8,5.9v-13.7l-10.2-6.8v11.9L424.2,208
					C424.6,207.9,425,208,425.3,208.2z"/>
			</g>
			<g>
				<path class="st13" d="M301.3,126.7l0.6-0.4c0.5-0.4,1.2-0.4,1.8,0l0.6,0.4v-19.8l8.7-5.8l-10.2-6.8l-10.1,6.8l8.6,5.8V126.7z"/>
			</g>
			<g>
				<path class="st13" d="M179.5,210.3v-0.7c0-0.4,0.1-0.7,0.4-1c0,0,0.1-0.1,0.1-0.1c0.1,0,0.1-0.1,0.2-0.1c0,0,0,0,0,0l0.8-0.5
					l-14.6-9.8V186l-10.2,6.8v13.7l8.8-5.9L179.5,210.3z"/>
			</g>
			<g>
				<polygon class="st13" points="259.4,318.9 221.7,344.3 220.3,345.3 218.9,346.2 182.7,370.6 181.1,371.7 179.5,372.7 165,382.5 
					156.2,376.5 156.2,390.2 166.4,397 166.4,385.2 181,375.4 182.4,374.4 183.8,373.4 220,349.1 221.6,348 223.2,346.9 
					262.1,320.7 261.3,320.2 				"/>
			</g>
			<g>
				<polygon class="st13" points="490.5,404.2 490.5,417.9 480.4,424.7 480.4,412.9 424.7,375.4 423.2,374.4 421.8,373.4 
					385.6,349.1 384,348 383.6,347.7 383.6,347.7 382.7,347.1 382.6,347.1 382.4,346.9 381.2,346.1 304.4,294.4 304.4,292.4 
					305.6,291.6 382.4,343.3 383.9,344.3 384,344.4 384.4,344.6 385.3,345.3 386.8,346.2 386.8,346.2 423,370.6 424.6,371.7 
					425.9,372.6 425.9,372.6 426.2,372.8 481.7,410.1 				"/>
			</g>
		</g>
	</g>
	<g id="Würfel_Top_Kopie_2_Kopie_2_Kopie_2_Kopie_Kopie_Kopie">
		<g>
			<polygon class="st14" points="260.6,261.2 224.5,236.9 260.6,212.6 			"/>
		</g>
		<g>
			<polygon class="st12" points="224.5,291.5 260.6,267.2 260.6,315.8 			"/>
		</g>
		<g>
			<polygon class="st12" points="137.6,346.2 99.9,371.5 62.2,346.2 99.9,320.8 			"/>
		</g>
		<g>
			<polygon class="st12" points="97,100.3 59.3,125.7 21.6,100.3 59.3,74.9 			"/>
		</g>
		<g>
			<polygon class="st11" points="340.5,209.6 304.3,234 302.8,235 301.3,234 265.1,209.6 301.3,185.2 302.8,184.2 304.3,185.2 			
				"/>
		</g>
		<g>
			<polygon class="st12" points="340.5,155 304.3,179.3 302.8,180.3 301.3,179.3 265.1,155 301.3,130.6 302.8,129.6 304.3,130.6 			
				"/>
		</g>
		<g>
			<polygon class="st11" points="382.4,237.8 382.4,288.5 346.2,264.2 345,263.4 345,212.6 381.2,237 381.2,237 			"/>
		</g>
		<g>
			<polygon class="st12" points="259.4,209.6 223.2,233.9 221.6,235 220,233.9 183.9,209.6 220,185.3 221.6,184.2 223.2,185.3 			
				"/>
		</g>
		<g>
			<polygon class="st14" points="220,237.8 220,288.5 182.7,263.4 182.7,212.6 			"/>
			<path class="st12" d="M220,233.9l1.6,1.1v0L220,233.9z"/>
		</g>
		<g>
			<polygon class="st14" points="301.2,292.4 301.2,343.2 265.1,318.9 265,318.8 263.8,318 263.8,267.2 299.9,291.5 300,291.6 			
				"/>
		</g>
		<g>
			<polygon class="st14" points="345,158 382.4,183.1 382.4,233.9 345,208.7 			"/>
			<path class="st12" d="M381.2,237l1.2,0.8v0L381.2,237z"/>
		</g>
		<g>
			<polygon class="st12" points="340.5,264.2 304.3,288.6 302.8,289.6 301.3,288.6 265.1,264.2 301.3,239.8 302.8,238.8 
				304.3,239.8 			"/>
		</g>
		<g>
			<polygon class="st14" points="305.7,400.8 341.8,376.5 341.8,425.1 			"/>
		</g>
		<g>
			<polygon class="st14" points="263.8,376.5 301.2,401.7 301.2,452.4 263.8,427.3 			"/>
		</g>
		<g>
			<polygon class="st14" points="179.4,429 179.4,479.7 142.1,454.6 142.1,403.8 			"/>
		</g>
		<g>
			<polygon class="st14" points="260.6,46.5 260.6,97.3 223.2,72.2 223.2,21.4 			"/>
		</g>
		<g>
			<polygon class="st14" points="869.4,128.5 869.4,179.3 832,154.1 832,103.3 			"/>
		</g>
		<g>
			<polygon class="st11" points="385.6,237.8 423,212.6 423,263.4 408.4,273.2 385.6,288.5 			"/>
		</g>
		<g>
			<polygon class="st11" points="950.6,185.3 950.6,236 913.2,261.2 913.2,210.4 			"/>
		</g>
		<g>
			<polygon class="st12" points="304.4,349.2 340.5,373.5 304.4,397.8 304.3,397.9 302.8,398.9 301.3,397.9 301.2,397.8 
				265.1,373.5 301.2,349.2 301.3,349.1 302.8,348.1 304.3,349.1 			"/>
		</g>
	</g>
</g>
<g id="CRC_1597">
	<rect x="681.5" y="398" class="st15" width="26.8" height="17.7"/>
	<line class="st16" x1="620.9" y1="388" x2="755.2" y2="388"/>
	<g>
		<path d="M637.2,416.9c0,3.6-0.1,4.3-1,5.4c-0.8,1-2.2,1.5-4.8,1.6c-0.8,0-2,0-3,0c-2.9,0-4-0.2-5.3-1.1c-0.9-0.6-1.7-2-1.9-3.4
			c-0.2-1.2-0.3-3.7-0.3-5.8c0-4.4,0-4.9,0.2-6c0.3-2.1,1.9-3.6,4.1-4c1.1-0.2,2.5-0.3,5.2-0.3c2.6,0,3.5,0.2,4.5,0.7
			c1.1,0.6,1.8,1.8,1.9,3.2c0.1,0.6,0.1,1,0.2,2.5h-2.3c0-2.2-0.1-2.8-0.5-3.4c-0.5-0.8-1.4-1.1-3.9-1.1c-2.8,0-4.7,0.2-5.4,0.5
			c-1.3,0.6-1.7,1.7-1.7,4.8c0,11.4,0,11.5,5.6,11.5c5.5,0,6.1-0.4,6.1-3.9v-1.2H637.2z"/>
		<path d="M640,403.4h9.6c4.3,0,5.9,1.5,5.9,5.8c0,3.7-0.8,4.9-3.5,5.3v0c2.1,0.1,3.3,1.5,3.2,3.9v5.1H653V419
			c0.1-2.6-1.1-3.6-3.8-3.5h-6.9v8.1H640V403.4z M648.8,413.5c3.3,0,4.4-0.9,4.4-3.6c0-2.1-0.1-3-0.5-3.6c-0.5-0.7-1.5-1-3.1-1h-7.4
			v8.2H648.8z"/>
		<path d="M674.6,416.9c0,3.6-0.1,4.3-1,5.4c-0.8,1-2.2,1.5-4.8,1.6c-0.8,0-2,0-3,0c-2.9,0-4-0.2-5.3-1.1c-0.9-0.6-1.7-2-1.9-3.4
			c-0.2-1.2-0.3-3.7-0.3-5.8c0-4.4,0-4.9,0.2-6c0.3-2.1,1.9-3.6,4.1-4c1.1-0.2,2.5-0.3,5.2-0.3c2.6,0,3.5,0.2,4.5,0.7
			c1.1,0.6,1.8,1.8,1.9,3.2c0.1,0.6,0.1,1,0.2,2.5h-2.3c0-2.2-0.1-2.8-0.5-3.4c-0.5-0.8-1.4-1.1-3.9-1.1c-2.8,0-4.7,0.2-5.4,0.5
			c-1.3,0.6-1.7,1.7-1.7,4.8c0,11.4,0,11.5,5.6,11.5c5.5,0,6.1-0.4,6.1-3.9v-1.2H674.6z"/>
		<path d="M695.2,423.7h-2.3v-18.6l-5.2,5.7l-1.4-1.4l5.6-6.1h3.3V423.7z"/>
		<path d="M717.7,405.3h-11.4l-0.1,6.2h0.1c0.9-1.3,2.1-1.7,5.4-1.7c2.7,0,4.4,0.5,5.4,1.5c1,1,1.4,2.3,1.4,5.1
			c0,6.3-1.2,7.5-7.4,7.5c-4.1,0-5.8-0.5-6.7-2.1c-0.6-0.9-0.7-1.4-0.7-4h2.2c0,1.9,0.2,2.6,0.6,3.2c0.6,0.6,1.7,0.9,4,0.9
			c2.4,0,3.6-0.2,4.4-0.5c1.1-0.5,1.3-1.2,1.3-5.2c0-3.8-0.8-4.4-5.2-4.4c-3.6,0-4.6,0.4-5,1.9h-2.1v-10.3h13.6V405.3z"/>
		<path d="M724.1,418.5c0,1.4,0.1,1.9,0.4,2.5c0.5,0.8,1.3,0.9,4.8,0.9c5,0,5.4-0.4,5.4-4.9v-3h-0.1c-0.5,0.7-0.8,1-1.2,1.2
			c-0.9,0.4-2.5,0.6-4.9,0.6c-2.9,0-4.5-0.5-5.5-1.6c-0.8-0.9-1-2.2-1-4.6c0-5.3,1.3-6.5,7.5-6.5c4.1,0,5.8,0.6,6.7,2.3
			c0.7,1.2,0.8,2.7,0.8,8.8c0,5.1-0.2,6.4-0.9,7.7c-0.6,0.9-1.6,1.5-3,1.8c-0.6,0.1-1.9,0.2-3.6,0.2c-3.9,0-5.2-0.2-6.3-1.1
			c-0.8-0.7-1.3-1.9-1.3-3.4c0-0.2,0-0.5,0-0.9H724.1z M724.2,409.3c0,4,0.5,4.5,4.7,4.5c3.4,0,4.9-0.3,5.4-1.2
			c0.3-0.5,0.4-1.1,0.4-2.6c0-2.4-0.2-3.2-0.7-3.9c-0.6-0.7-1.8-1-4.9-1C724.8,405.2,724.2,405.7,724.2,409.3z"/>
		<path d="M755.3,406.3l-9.8,17.4h-2.7l10.6-18.4h-12.9v-1.9h14.8V406.3z"/>
	</g>
	<text transform="matrix(1 0 0 1 619.4962 423.6655)" class="st0 st17 st18">CRC 1597</text>
	<rect x="642.3" y="389.5" class="st19" width="7.6" height="13.8"/>
</g>
<g id="Ebene_39" class="st0">
	<polygon class="st20" points="181,373.5 302.8,455.4 424.6,373.5 424.6,209.6 302.8,127.6 181,209.6 	"/>
</g>
<g id="Ebene_25" class="st0">
	<polygon class="st21" points="181,318.8 181,373.5 221.6,400.8 221.6,346.2 	"/>
	<polygon class="st22" points="343.4,373.5 384,400.8 424.6,373.5 384,346.2 	"/>
	<polygon class="st22" points="343.4,45.7 384,73 424.6,45.7 384,18.4 	"/>
	<polygon class="st22" points="668.1,154.9 708.7,182.3 749.3,154.9 708.7,127.6 	"/>
	<polygon class="st21" points="99.9,100.3 99.9,155 140.5,182.3 140.5,127.6 	"/>
	<polygon class="st24" points="424.6,264.2 424.6,318.8 384,346.2 384,291.5 	"/>
	<polygon class="st24" points="424.6,318.8 424.6,373.5 384,400.8 384,346.2 	"/>
	<polygon class="st24" points="221.6,455.4 221.6,510.1 181,537.4 181,482.7 	"/>
	<polygon class="st24" points="59.9,73 59.9,127.6 19.3,155 19.3,100.3 	"/>
	<g class="st2">
		<polygon class="st9" points="156.2,376.5 156.2,390.2 166.4,397 166.4,383.4 		"/>
	</g>
	<g class="st2">
		<polygon class="st9" points="439.3,186 439.3,199.7 449.4,206.5 449.4,192.9 		"/>
	</g>
	<line class="st25" x1="161.3" y1="386.8" x2="444.3" y2="196.3"/>
	<g class="st2">
		<polygon class="st9" points="292.7,482 302.8,488.9 313,482 302.8,475.2 		"/>
	</g>
	<g class="st2">
		<polygon class="st9" points="292.7,101 302.8,107.9 313,101 302.8,94.2 		"/>
	</g>
	<line class="st26" x1="302.8" y1="482" x2="302.8" y2="101"/>
	<line class="st25" x1="161.3" y1="196.3" x2="485.5" y2="414.5"/>
	<g class="st2">
		<polygon class="st9" points="156.2,206.5 156.2,192.9 166.4,186 166.4,199.7 		"/>
	</g>
	<g class="st2">
		<polygon class="st9" points="480.4,424.7 480.4,411 490.5,404.2 490.5,417.9 		"/>
	</g>
	<polygon class="st22" points="221.6,291.5 262.2,318.9 302.8,291.5 262.2,264.2 	"/>
	<polygon class="st22" points="18.7,318.9 59.3,346.2 99.9,318.9 59.3,291.5 	"/>
	<polygon class="st22" points="262.2,318.9 302.8,346.2 343.4,318.9 302.8,291.5 	"/>
	<polygon class="st22" points="262.2,209.6 302.8,236.9 343.4,209.6 302.8,182.3 	"/>
	<polygon class="st22" points="262.2,155 302.8,182.3 343.4,155 302.8,127.6 	"/>
	<polygon class="st21" points="343.4,155 343.4,209.6 384,236.9 384,182.3 	"/>
	<polygon class="st21" points="343.4,209.6 343.4,264.2 384,291.5 384,236.9 	"/>
	<polygon class="st22" points="181,209.6 221.6,236.9 262.2,209.6 221.6,182.3 	"/>
	<polygon class="st21" points="181,209.6 181,264.2 221.6,291.5 221.6,236.9 	"/>
	<polygon class="st24" points="262.2,209.6 262.2,264.2 221.6,291.5 221.6,236.9 	"/>
	<polygon class="st21" points="262.2,264.2 262.2,318.9 302.8,346.2 302.8,291.5 	"/>
	<polygon class="st22" points="262.2,264.2 302.8,291.5 343.4,264.2 302.8,236.9 	"/>
	<polygon class="st21" points="302.8,346.2 302.8,400.8 343.4,428.1 343.4,373.5 	"/>
	<polygon class="st21" points="262.2,373.5 262.2,428.1 302.8,455.4 302.8,400.8 	"/>
	<polygon class="st21" points="99.9,428.1 99.9,482.7 140.5,510.1 140.5,455.4 	"/>
	<polygon class="st21" points="830.4,45.7 830.4,100.3 871,127.6 871,73 	"/>
	<polygon class="st24" points="424.6,209.6 424.6,264.2 384,291.5 384,236.9 	"/>
	<polygon class="st24" points="952.2,182.3 952.2,236.9 911.6,264.2 911.6,209.6 	"/>
	<polygon class="st24" points="343.4,373.5 343.4,428.1 302.8,455.4 302.8,400.8 	"/>
</g>
<g id="Text" class="st0">
	<g class="st2">
		<g>
			<text transform="matrix(1 0 0 1 450.1723 313.6226)" class="st27 st28 st29">small data</text>
		</g>
		<g>
			<text transform="matrix(1 0 0 1 450.166 371.9786)" class="st27 st17 st30">MORE FROM LESS</text>
		</g>
	</g>
</g>
<g id="Text_Ausgearbeitet" class="st0">
	<g class="st2">
		<g>
			<text transform="matrix(1 0 0 1 450.1723 313.6226)"><tspan x="0" y="0" class="st27 st28 st29 st32">small d</tspan><tspan x="318.9" y="0" class="st27 st28 st29">a</tspan><tspan x="370.6" y="0" class="st27 st28 st29">ta</tspan></text>
		</g>
		<g>
			<text transform="matrix(1 0 0 1 451.0827 371.9786)" class="st27 st17 st30">MORE FROM LESS</text>
		</g>
	</g>
</g>
<g id="Text_Ausgearbeitet_Kopie" class="st0">
	<g class="st2">
		<g>
			<path class="st13" d="M495.1,305.8c0,5.2-2.7,7.8-8,7.8H463c-5.3,0-8-2.6-8-7.8v-13.6h13.7v10.6h12.6v-10l-22-13
				c-2.9-1.7-4.3-4-4.3-6.9v-14.8c0-5.2,2.7-7.8,8.1-7.8H487c5.3,0,8,2.6,8,7.8v12.7h-13.6v-9.8h-12.6v9.1l21.9,12.8
				c2.9,1.7,4.4,4,4.4,7V305.8z"/>
			<path class="st13" d="M574,313.6h-14.2v-51.3l-13.5,0.3v51.1h-14.3v-51.3l-13.5,0.3v51.1h-14.3v-63.3h14.3v2.3
				c3.3-0.5,6.7-1.1,10-1.6c4-0.6,7.4-0.9,10.1-0.9c3.3,0,5.4,0.9,6.4,2.8c3.5-0.5,7-1.1,10.5-1.7c4.6-0.8,8.2-1.1,10.6-1.1
				c5.2,0,7.8,2.6,7.8,7.7V313.6z"/>
			<path class="st13" d="M624.2,313.6h-13.7v-2.2c-3.3,0.5-6.5,1-9.8,1.5c-4.3,0.6-7.5,0.9-9.7,0.9c-5.2,0-7.8-2.6-7.8-7.7v-22.8
				c0-5.2,2.7-7.8,8.1-7.8h19.4V261h-13.7v9h-13v-11.8c0-5.2,2.7-7.8,8.1-7.8h24.2c5.3,0,8,2.6,8,7.8V313.6z M610.6,302.2v-17h-13.7
				v17.5L610.6,302.2z"/>
			<path class="st13" d="M647.7,313.6h-14.1v-98h14.1V313.6z"/>
			<path class="st13" d="M671.4,313.6h-14.1v-98h14.1V313.6z"/>
			<path class="st13" d="M753.1,313.6h-14.3v-2.2c-9.7,1.7-15.1,2.6-16.3,2.6c-3.6,0-6.4-1.1-8.5-3.2c-2-2.1-3.1-5-3.1-8.6v-39.2
				c0-5.1,1.8-8.7,5.5-10.7c2.7-1.5,6.7-2.3,12.2-2.3c1.2,0,3,0,5.3,0.1c2.3,0.1,3.9,0.1,4.9,0.1v-34.8h14.3V313.6z M738.8,301.3
				v-39h-8.8c-3.2,0-4.8,1.6-4.8,4.8v30.3c0,3.1,1.5,4.6,4.5,4.6C730.4,302,733.4,301.7,738.8,301.3z"/>
			<path class="st13" d="M803.3,313.6h-13.7v-2.2c-3.3,0.5-6.5,1-9.8,1.5c-4.3,0.6-7.5,0.9-9.7,0.9c-5.2,0-7.8-2.6-7.8-7.7v-22.8
				c0-5.2,2.7-7.8,8.1-7.8h19.4V261H776v9h-13v-11.8c0-5.2,2.7-7.8,8.1-7.8h24.2c5.3,0,8,2.6,8,7.8V313.6z M789.7,302.2v-17H776
				v17.5L789.7,302.2z"/>
			<path class="st13" d="M841,313.6h-15.9c-5.3,0-8-2.6-8-7.8v-43.2h-6.8v-12.2h6.8v-17.2h14.3v17.2h9.2v12.2h-9.2v38.8h9.6V313.6z"
				/>
			<path class="st13" d="M888.8,313.6h-13.7v-2.2c-3.3,0.5-6.5,1-9.8,1.5c-4.3,0.6-7.5,0.9-9.7,0.9c-5.2,0-7.8-2.6-7.8-7.7v-22.8
				c0-5.2,2.7-7.8,8.1-7.8h19.4V261h-13.7v9h-13v-11.8c0-5.2,2.7-7.8,8.1-7.8h24.2c5.3,0,8,2.6,8,7.8V313.6z M875.2,302.2v-17h-13.7
				v17.5L875.2,302.2z"/>
		</g>
	</g>
	<g class="st2">
		<g>
			<path class="st13" d="M496,372h-4.2v-30.2v-2.3v-1.1l0.1-1.1h-0.1c-0.2,0.6-0.3,1-0.5,1.4c-0.2,0.5-0.3,0.6-0.8,2.1L477.5,372
				h-4.3l-12.8-30.8l-0.7-1.8l-0.3-0.9l-0.3-0.8h-0.1l0.1,1v1.1v2V372h-4.2v-37.7h7.4l10.1,24.4l1.6,3.9l0.8,2l0.8,2h0.1l0.8-2
				l0.8-2l1.6-3.9l10-24.4h7.5V372z"/>
			<path class="st13" d="M527.6,335.1c3.2,1.4,4.9,4.1,5.6,9c0.2,1.7,0.2,2.6,0.2,7.4c0,8.8-0.1,10.1-0.7,13c-0.7,3.3-2.3,5.5-5,6.6
				c-2.4,1-4.3,1.2-9.8,1.2c-6.6,0-8.4-0.2-10.9-1.2c-2.7-1.2-4.3-3.3-5-6.6c-0.6-2.9-0.7-4.2-0.7-13c0-7.9,0.3-10.1,1.9-13
				c1.2-2.3,3.5-3.7,6.6-4.4c1.4-0.2,4.3-0.4,7.6-0.4C523.2,333.9,525.4,334.1,527.6,335.1z M507.5,339.3c-1.1,1.3-1.6,3-1.9,6.2
				c-0.1,0.8-0.1,0.8-0.1,7.6c0,7.8,0,7.8,0.3,10c0.4,2.6,1.4,4.2,3.2,4.9c1.5,0.6,3.1,0.8,8.1,0.8c6.9,0,8.8-0.3,10.1-1.8
				c1.1-1.3,1.6-3,1.9-6.2c0.1-0.8,0.1-0.8,0.1-7.6c0-7.7,0-7.7-0.3-9.9c-0.4-2.6-1.4-4.2-3.2-4.9c-1.5-0.6-3.2-0.8-8.1-0.8
				C510.7,337.5,508.8,337.9,507.5,339.3z"/>
			<path class="st13" d="M538.6,334.3h17.9c8.1,0,11,2.9,11,10.9c0,6.8-1.5,9.1-6.5,10v0.1c3.9,0.2,6.1,2.8,6,7.3v9.6h-4.2v-8.6
				c0.1-4.8-2-6.7-7.1-6.6h-12.8V372h-4.2V334.3z M555.2,353.1c6.2,0,8.2-1.6,8.2-6.7c0-3.9-0.2-5.5-1-6.6c-0.8-1.2-2.7-1.9-5.7-1.9
				h-13.7v15.2H555.2z"/>
			<path class="st13" d="M577,350.7h19.1v3.6H577v14h20v3.7h-24.2v-37.7H597v3.7h-20V350.7z"/>
			<path class="st13" d="M620.9,351h18.4v3.6h-18.4V372h-4.2v-37.7h23.1v3.7h-18.9V351z"/>
			<path class="st13" d="M643.9,334.3h17.9c8.1,0,11,2.9,11,10.9c0,6.8-1.5,9.1-6.5,10v0.1c3.9,0.2,6.1,2.8,6,7.3v9.6h-4.2v-8.6
				c0.1-4.8-2-6.7-7.1-6.6h-12.8V372h-4.2V334.3z M660.4,353.1c6.2,0,8.2-1.6,8.2-6.7c0-3.9-0.2-5.5-1-6.6c-0.8-1.2-2.7-1.9-5.7-1.9
				h-13.7v15.2H660.4z"/>
			<path class="st13" d="M703.6,335.1c3.2,1.4,4.9,4.1,5.6,9c0.2,1.7,0.2,2.6,0.2,7.4c0,8.8-0.1,10.1-0.7,13c-0.7,3.3-2.3,5.5-5,6.6
				c-2.4,1-4.3,1.2-9.8,1.2c-6.6,0-8.4-0.2-10.9-1.2c-2.7-1.2-4.3-3.3-5-6.6c-0.6-2.9-0.7-4.2-0.7-13c0-7.9,0.3-10.1,1.9-13
				c1.2-2.3,3.5-3.7,6.6-4.4c1.4-0.2,4.3-0.4,7.6-0.4C699.2,333.9,701.4,334.1,703.6,335.1z M683.5,339.3c-1.1,1.3-1.6,3-1.9,6.2
				c-0.1,0.8-0.1,0.8-0.1,7.6c0,7.8,0,7.8,0.3,10c0.4,2.6,1.4,4.2,3.2,4.9c1.5,0.6,3.1,0.8,8.1,0.8c6.9,0,8.8-0.3,10.1-1.8
				c1.1-1.3,1.6-3,1.9-6.2c0.1-0.8,0.1-0.8,0.1-7.6c0-7.7,0-7.7-0.3-9.9c-0.4-2.6-1.4-4.2-3.2-4.9c-1.5-0.6-3.2-0.8-8.1-0.8
				C686.7,337.5,684.8,337.9,683.5,339.3z"/>
			<path class="st13" d="M756,372h-4.2v-30.2v-2.3v-1.1l0.1-1.1h-0.1c-0.2,0.6-0.3,1-0.5,1.4c-0.2,0.5-0.3,0.6-0.8,2.1L737.5,372
				h-4.3l-12.8-30.8l-0.7-1.8l-0.3-0.9l-0.3-0.8h-0.1l0.1,1v1.1v2V372h-4.2v-37.7h7.4l10.1,24.4l1.6,3.9l0.8,2l0.8,2h0.1l0.8-2
				l0.8-2l1.6-3.9l10-24.4h7.5V372z"/>
			<path class="st13" d="M781.6,368H801v4h-23.6v-37.7h4.2V368z"/>
			<path class="st13" d="M809,350.7h19.1v3.6H809v14h20v3.7h-24.2v-37.7h24.2v3.7h-20V350.7z"/>
			<path class="st13" d="M855.9,344.5c0-2.8-0.2-3.8-0.8-4.9c-1-1.6-2.8-2.1-7.9-2.1c-5.9,0-7.9,0.3-9.1,1.7c-0.9,1-1.4,2.6-1.4,5
				c0,3.4,0.8,5.1,2.7,5.8c1.2,0.5,1.5,0.5,7.8,0.8c7,0.3,9.1,0.7,10.7,2.1c2,1.5,2.7,3.8,2.7,8.4c0,5.1-0.9,7.9-3.2,9.3
				c-2.1,1.4-4.8,1.8-12.5,1.8c-5.3,0-7-0.3-9.2-1.5c-1.5-0.8-2.7-2.7-3.1-4.6c-0.3-1.6-0.5-2.7-0.5-5.9h4.2
				c0.1,4.1,0.1,4.8,0.8,6.2c1,1.9,2.3,2.2,9.1,2.2c9.1,0,10.1-0.8,10.1-7.8c0-3.2-0.6-4.6-2.3-5.3c-1.1-0.5-1.1-0.5-8-0.8
				c-7-0.3-7.5-0.5-9.4-1.3c-3.1-1.5-4.3-4.1-4.3-8.8c0-4.4,0.9-7.1,2.8-8.5c2.1-1.7,4.9-2.2,11.3-2.2c7.1,0,10,0.7,11.8,3.1
				c1.2,1.6,1.6,3.5,1.6,6.9v0.6H855.9z"/>
			<path class="st13" d="M888.3,344.5c0-2.8-0.2-3.8-0.8-4.9c-1-1.6-2.8-2.1-7.9-2.1c-5.9,0-7.9,0.3-9.1,1.7c-0.9,1-1.4,2.6-1.4,5
				c0,3.4,0.8,5.1,2.7,5.8c1.2,0.5,1.5,0.5,7.8,0.8c7,0.3,9.1,0.7,10.7,2.1c2,1.5,2.7,3.8,2.7,8.4c0,5.1-0.9,7.9-3.2,9.3
				c-2.1,1.4-4.8,1.8-12.5,1.8c-5.3,0-7-0.3-9.2-1.5c-1.5-0.8-2.7-2.7-3.1-4.6c-0.3-1.6-0.5-2.7-0.5-5.9h4.2
				c0.1,4.1,0.1,4.8,0.8,6.2c1,1.9,2.3,2.2,9.1,2.2c9.1,0,10.1-0.8,10.1-7.8c0-3.2-0.6-4.6-2.3-5.3c-1.1-0.5-1.1-0.5-8-0.8
				c-7-0.3-7.5-0.5-9.4-1.3c-3.1-1.5-4.3-4.1-4.3-8.8c0-4.4,0.9-7.1,2.8-8.5c2.1-1.7,4.9-2.2,11.3-2.2c7.1,0,10,0.7,11.8,3.1
				c1.2,1.6,1.6,3.5,1.6,6.9v0.6H888.3z"/>
		</g>
	</g>
</g>
<g id="Text_Ausgearbeitet_Halbe_e-Höhe" class="st0">
	<g class="st2">
		<g>
			<path class="st13" d="M495.1,306.4c0,5.2-2.7,7.8-8,7.8H463c-5.3,0-8-2.6-8-7.8v-13.6h13.7v10.6h12.6v-10l-22-13
				c-2.9-1.7-4.3-4-4.3-6.9v-14.8c0-5.2,2.7-7.8,8.1-7.8H487c5.3,0,8,2.6,8,7.8v12.7h-13.6v-9.8h-12.6v9.1l21.9,12.8
				c2.9,1.7,4.4,4,4.4,7V306.4z"/>
			<path class="st13" d="M574,314.2h-14.2v-51.3l-13.5,0.3v51.1h-14.3v-51.3l-13.5,0.3v51.1h-14.3v-63.3h14.3v2.3
				c3.3-0.5,6.7-1.1,10-1.6c4-0.6,7.4-0.9,10.1-0.9c3.3,0,5.4,0.9,6.4,2.8c3.5-0.5,7-1.1,10.5-1.7c4.6-0.8,8.2-1.1,10.6-1.1
				c5.2,0,7.8,2.6,7.8,7.7V314.2z"/>
			<path class="st13" d="M624.2,314.2h-13.7V312c-3.3,0.5-6.5,1-9.8,1.5c-4.3,0.6-7.5,0.9-9.7,0.9c-5.2,0-7.8-2.6-7.8-7.7V284
				c0-5.2,2.7-7.8,8.1-7.8h19.4v-14.5h-13.7v9h-13v-11.8c0-5.2,2.7-7.8,8.1-7.8h24.2c5.3,0,8,2.6,8,7.8V314.2z M610.6,302.8v-17
				h-13.7v17.5L610.6,302.8z"/>
			<path class="st13" d="M647.7,314.2h-14.1v-98h14.1V314.2z"/>
			<path class="st13" d="M671.4,314.2h-14.1v-98h14.1V314.2z"/>
			<path class="st13" d="M753.1,314.2h-14.3V312c-9.7,1.7-15.1,2.6-16.3,2.6c-3.6,0-6.4-1.1-8.5-3.2c-2-2.1-3.1-5-3.1-8.6v-39.2
				c0-5.1,1.8-8.7,5.5-10.7c2.7-1.5,6.7-2.3,12.2-2.3c1.2,0,3,0,5.3,0.1c2.3,0.1,3.9,0.1,4.9,0.1v-34.8h14.3V314.2z M738.8,301.9
				v-39h-8.8c-3.2,0-4.8,1.6-4.8,4.8v30.3c0,3.1,1.5,4.6,4.5,4.6C730.4,302.6,733.4,302.3,738.8,301.9z"/>
			<path class="st13" d="M803.3,314.2h-13.7V312c-3.3,0.5-6.5,1-9.8,1.5c-4.3,0.6-7.5,0.9-9.7,0.9c-5.2,0-7.8-2.6-7.8-7.7V284
				c0-5.2,2.7-7.8,8.1-7.8h19.4v-14.5H776v9h-13v-11.8c0-5.2,2.7-7.8,8.1-7.8h24.2c5.3,0,8,2.6,8,7.8V314.2z M789.7,302.8v-17H776
				v17.5L789.7,302.8z"/>
			<path class="st13" d="M841,314.2h-15.9c-5.3,0-8-2.6-8-7.8v-43.2h-6.8v-12.2h6.8v-17.2h14.3v17.2h9.2v12.2h-9.2V302h9.6V314.2z"
				/>
			<path class="st13" d="M888.8,314.2h-13.7V312c-3.3,0.5-6.5,1-9.8,1.5c-4.3,0.6-7.5,0.9-9.7,0.9c-5.2,0-7.8-2.6-7.8-7.7V284
				c0-5.2,2.7-7.8,8.1-7.8h19.4v-14.5h-13.7v9h-13v-11.8c0-5.2,2.7-7.8,8.1-7.8h24.2c5.3,0,8,2.6,8,7.8V314.2z M875.2,302.8v-17
				h-13.7v17.5L875.2,302.8z"/>
		</g>
	</g>
	<g class="st2">
		<g>
			<path class="st13" d="M496,372h-4.2v-30.2v-2.3v-1.1l0.1-1.1h-0.1c-0.2,0.6-0.3,1-0.5,1.4c-0.2,0.5-0.3,0.6-0.8,2.1L477.5,372
				h-4.3l-12.8-30.8l-0.7-1.8l-0.3-0.9l-0.3-0.8h-0.1l0.1,1v1.1v2V372h-4.2v-37.7h7.4l10.1,24.4l1.6,3.9l0.8,2l0.8,2h0.1l0.8-2
				l0.8-2l1.6-3.9l10-24.4h7.5V372z"/>
			<path class="st13" d="M527.6,335.1c3.2,1.4,4.9,4.1,5.6,9c0.2,1.7,0.2,2.6,0.2,7.4c0,8.8-0.1,10.1-0.7,13c-0.7,3.3-2.3,5.5-5,6.6
				c-2.4,1-4.3,1.2-9.8,1.2c-6.6,0-8.4-0.2-10.9-1.2c-2.7-1.2-4.3-3.3-5-6.6c-0.6-2.9-0.7-4.2-0.7-13c0-7.9,0.3-10.1,1.9-13
				c1.2-2.3,3.5-3.7,6.6-4.4c1.4-0.2,4.3-0.4,7.6-0.4C523.2,333.9,525.4,334.1,527.6,335.1z M507.5,339.3c-1.1,1.3-1.6,3-1.9,6.2
				c-0.1,0.8-0.1,0.8-0.1,7.6c0,7.8,0,7.8,0.3,10c0.4,2.6,1.4,4.2,3.2,4.9c1.5,0.6,3.1,0.8,8.1,0.8c6.9,0,8.8-0.3,10.1-1.8
				c1.1-1.3,1.6-3,1.9-6.2c0.1-0.8,0.1-0.8,0.1-7.6c0-7.7,0-7.7-0.3-9.9c-0.4-2.6-1.4-4.2-3.2-4.9c-1.5-0.6-3.2-0.8-8.1-0.8
				C510.7,337.5,508.8,337.9,507.5,339.3z"/>
			<path class="st13" d="M538.6,334.3h17.9c8.1,0,11,2.9,11,10.9c0,6.8-1.5,9.1-6.5,10v0.1c3.9,0.2,6.1,2.8,6,7.3v9.6h-4.2v-8.6
				c0.1-4.8-2-6.7-7.1-6.6h-12.8V372h-4.2V334.3z M555.2,353.1c6.2,0,8.2-1.6,8.2-6.7c0-3.9-0.2-5.5-1-6.6c-0.8-1.2-2.7-1.9-5.7-1.9
				h-13.7v15.2H555.2z"/>
			<path class="st13" d="M577,350.7h19.1v3.6H577v14h20v3.7h-24.2v-37.7H597v3.7h-20V350.7z"/>
			<path class="st13" d="M620.9,351h18.4v3.6h-18.4V372h-4.2v-37.7h23.1v3.7h-18.9V351z"/>
			<path class="st13" d="M643.9,334.3h17.9c8.1,0,11,2.9,11,10.9c0,6.8-1.5,9.1-6.5,10v0.1c3.9,0.2,6.1,2.8,6,7.3v9.6h-4.2v-8.6
				c0.1-4.8-2-6.7-7.1-6.6h-12.8V372h-4.2V334.3z M660.4,353.1c6.2,0,8.2-1.6,8.2-6.7c0-3.9-0.2-5.5-1-6.6c-0.8-1.2-2.7-1.9-5.7-1.9
				h-13.7v15.2H660.4z"/>
			<path class="st13" d="M703.6,335.1c3.2,1.4,4.9,4.1,5.6,9c0.2,1.7,0.2,2.6,0.2,7.4c0,8.8-0.1,10.1-0.7,13c-0.7,3.3-2.3,5.5-5,6.6
				c-2.4,1-4.3,1.2-9.8,1.2c-6.6,0-8.4-0.2-10.9-1.2c-2.7-1.2-4.3-3.3-5-6.6c-0.6-2.9-0.7-4.2-0.7-13c0-7.9,0.3-10.1,1.9-13
				c1.2-2.3,3.5-3.7,6.6-4.4c1.4-0.2,4.3-0.4,7.6-0.4C699.2,333.9,701.4,334.1,703.6,335.1z M683.5,339.3c-1.1,1.3-1.6,3-1.9,6.2
				c-0.1,0.8-0.1,0.8-0.1,7.6c0,7.8,0,7.8,0.3,10c0.4,2.6,1.4,4.2,3.2,4.9c1.5,0.6,3.1,0.8,8.1,0.8c6.9,0,8.8-0.3,10.1-1.8
				c1.1-1.3,1.6-3,1.9-6.2c0.1-0.8,0.1-0.8,0.1-7.6c0-7.7,0-7.7-0.3-9.9c-0.4-2.6-1.4-4.2-3.2-4.9c-1.5-0.6-3.2-0.8-8.1-0.8
				C686.7,337.5,684.8,337.9,683.5,339.3z"/>
			<path class="st13" d="M756,372h-4.2v-30.2v-2.3v-1.1l0.1-1.1h-0.1c-0.2,0.6-0.3,1-0.5,1.4c-0.2,0.5-0.3,0.6-0.8,2.1L737.5,372
				h-4.3l-12.8-30.8l-0.7-1.8l-0.3-0.9l-0.3-0.8h-0.1l0.1,1v1.1v2V372h-4.2v-37.7h7.4l10.1,24.4l1.6,3.9l0.8,2l0.8,2h0.1l0.8-2
				l0.8-2l1.6-3.9l10-24.4h7.5V372z"/>
			<path class="st13" d="M781.6,368H801v4h-23.6v-37.7h4.2V368z"/>
			<path class="st13" d="M809,350.7h19.1v3.6H809v14h20v3.7h-24.2v-37.7h24.2v3.7h-20V350.7z"/>
			<path class="st13" d="M855.9,344.5c0-2.8-0.2-3.8-0.8-4.9c-1-1.6-2.8-2.1-7.9-2.1c-5.9,0-7.9,0.3-9.1,1.7c-0.9,1-1.4,2.6-1.4,5
				c0,3.4,0.8,5.1,2.7,5.8c1.2,0.5,1.5,0.5,7.8,0.8c7,0.3,9.1,0.7,10.7,2.1c2,1.5,2.7,3.8,2.7,8.4c0,5.1-0.9,7.9-3.2,9.3
				c-2.1,1.4-4.8,1.8-12.5,1.8c-5.3,0-7-0.3-9.2-1.5c-1.5-0.8-2.7-2.7-3.1-4.6c-0.3-1.6-0.5-2.7-0.5-5.9h4.2
				c0.1,4.1,0.1,4.8,0.8,6.2c1,1.9,2.3,2.2,9.1,2.2c9.1,0,10.1-0.8,10.1-7.8c0-3.2-0.6-4.6-2.3-5.3c-1.1-0.5-1.1-0.5-8-0.8
				c-7-0.3-7.5-0.5-9.4-1.3c-3.1-1.5-4.3-4.1-4.3-8.8c0-4.4,0.9-7.1,2.8-8.5c2.1-1.7,4.9-2.2,11.3-2.2c7.1,0,10,0.7,11.8,3.1
				c1.2,1.6,1.6,3.5,1.6,6.9v0.6H855.9z"/>
			<path class="st13" d="M888.3,344.5c0-2.8-0.2-3.8-0.8-4.9c-1-1.6-2.8-2.1-7.9-2.1c-5.9,0-7.9,0.3-9.1,1.7c-0.9,1-1.4,2.6-1.4,5
				c0,3.4,0.8,5.1,2.7,5.8c1.2,0.5,1.5,0.5,7.8,0.8c7,0.3,9.1,0.7,10.7,2.1c2,1.5,2.7,3.8,2.7,8.4c0,5.1-0.9,7.9-3.2,9.3
				c-2.1,1.4-4.8,1.8-12.5,1.8c-5.3,0-7-0.3-9.2-1.5c-1.5-0.8-2.7-2.7-3.1-4.6c-0.3-1.6-0.5-2.7-0.5-5.9h4.2
				c0.1,4.1,0.1,4.8,0.8,6.2c1,1.9,2.3,2.2,9.1,2.2c9.1,0,10.1-0.8,10.1-7.8c0-3.2-0.6-4.6-2.3-5.3c-1.1-0.5-1.1-0.5-8-0.8
				c-7-0.3-7.5-0.5-9.4-1.3c-3.1-1.5-4.3-4.1-4.3-8.8c0-4.4,0.9-7.1,2.8-8.5c2.1-1.7,4.9-2.2,11.3-2.2c7.1,0,10,0.7,11.8,3.1
				c1.2,1.6,1.6,3.5,1.6,6.9v0.6H888.3z"/>
		</g>
	</g>
	<g id="Abstand" class="st2">
		<g>
			<g>
				<path class="st33" d="M809,330.7h19.1v3.6H809v14h20v3.7h-24.2v-37.7h24.2v3.7h-20V330.7z"/>
			</g>
		</g>
		<g>
			<g>
				<path class="st33" d="M625,330.7h19.1v3.6H625v14h20v3.7h-24.2v-37.7h24.2v3.7h-20V330.7z"/>
			</g>
		</g>
		<g>
			<g>
				<path class="st33" d="M739.3,330.7h19.1v3.6h-19.1v14h20v3.7h-24.2v-37.7h24.2v3.7h-20V330.7z"/>
			</g>
		</g>
		<g>
			<g>
				<path class="st33" d="M507.3,330.7h19.1v3.6h-19.1v14h20v3.7h-24.2v-37.7h24.2v3.7h-20V330.7z"/>
			</g>
		</g>
	</g>
</g>
<g id="Abstand_1_" class="st0">
	<g id="Abstand_Kopie" class="st2">
		<g>
			<g>
				<path class="st33" d="M788.3,332.8h18.4v3.4h-18.4v13.5h19.2v3.5h-23.3V317h23.3v3.5h-19.2V332.8z"/>
			</g>
		</g>
		<g>
			<g>
				<path class="st33" d="M611.1,332.8h18.4v3.4h-18.4v13.5h19.2v3.5H607V317h23.3v3.5h-19.2V332.8z"/>
			</g>
		</g>
		<g>
			<g>
				<path class="st33" d="M721.2,332.8h18.4v3.4h-18.4v13.5h19.2v3.5h-23.3V317h23.3v3.5h-19.2V332.8z"/>
			</g>
		</g>
		<g>
			<g>
				<path class="st33" d="M497.7,332.8h18.4v3.4h-18.4v13.5h19.2v3.5h-23.3V317h23.3v3.5h-19.2V332.8z"/>
			</g>
		</g>
	</g>
</g>
<g id="Text_Ausgearbeitet_Halbe_e-Höhe_Kopie">
	<g>
		<g>
			<path class="st13" d="M505.3,309.1c0,5.2-2.7,7.8-8,7.8h-24.1c-5.3,0-8-2.6-8-7.8v-13.6H479v10.6h12.6v-10l-22-13
				c-2.9-1.7-4.3-4-4.3-6.9v-14.8c0-5.2,2.7-7.8,8.1-7.8h23.9c5.3,0,8,2.6,8,7.8v12.7h-13.6v-9.8H479v9.1l21.9,12.8
				c2.9,1.7,4.4,4,4.4,7V309.1z"/>
			<path class="st13" d="M584.2,317H570v-51.3l-13.5,0.3V317h-14.3v-51.3l-13.5,0.3V317h-14.3v-63.3h14.3v2.3
				c3.3-0.5,6.7-1.1,10-1.6c4-0.6,7.4-0.9,10.1-0.9c3.3,0,5.4,0.9,6.4,2.8c3.5-0.5,7-1.1,10.5-1.7c4.6-0.8,8.2-1.1,10.6-1.1
				c5.2,0,7.8,2.6,7.8,7.7V317z"/>
			<path class="st13" d="M634.4,317h-13.7v-2.2c-3.3,0.5-6.5,1-9.8,1.5c-4.3,0.6-7.5,0.9-9.7,0.9c-5.2,0-7.8-2.6-7.8-7.7v-22.8
				c0-5.2,2.7-7.8,8.1-7.8h19.4v-14.5h-13.7v9h-13v-11.8c0-5.2,2.7-7.8,8.1-7.8h24.2c5.3,0,8,2.6,8,7.8V317z M620.8,305.6v-17h-13.7
				v17.5L620.8,305.6z"/>
			<path class="st13" d="M657.9,317h-14.1v-98h14.1V317z"/>
			<path class="st13" d="M681.6,317h-14.1v-98h14.1V317z"/>
			<path class="st13" d="M750,317h-14.3v-2.2c-9.7,1.7-15.1,2.6-16.3,2.6c-3.6,0-6.4-1.1-8.5-3.2c-2-2.1-3.1-5-3.1-8.6v-39.2
				c0-5.1,1.8-8.7,5.5-10.7c2.7-1.5,6.7-2.3,12.2-2.3c1.2,0,3,0,5.3,0.1c2.3,0.1,3.9,0.1,4.9,0.1v-34.8H750V317z M735.7,304.6v-39
				h-8.8c-3.2,0-4.8,1.6-4.8,4.8v30.3c0,3.1,1.5,4.6,4.5,4.6C727.4,305.3,730.4,305.1,735.7,304.6z"/>
			<path class="st13" d="M800.3,317h-13.7v-2.2c-3.3,0.5-6.5,1-9.8,1.5c-4.3,0.6-7.5,0.9-9.7,0.9c-5.2,0-7.8-2.6-7.8-7.7v-22.8
				c0-5.2,2.7-7.8,8.1-7.8h19.4v-14.5h-13.7v9h-13v-11.8c0-5.2,2.7-7.8,8.1-7.8h24.2c5.3,0,8,2.6,8,7.8V317z M786.7,305.6v-17h-13.7
				v17.5L786.7,305.6z"/>
			<path class="st13" d="M838,317h-15.9c-5.3,0-8-2.6-8-7.8v-43.2h-6.8v-12.2h6.8v-17.2h14.3v17.2h9.2v12.2h-9.2v38.8h9.6V317z"/>
			<path class="st13" d="M885.8,317h-13.7v-2.2c-3.3,0.5-6.5,1-9.8,1.5c-4.3,0.6-7.5,0.9-9.7,0.9c-5.2,0-7.8-2.6-7.8-7.7v-22.8
				c0-5.2,2.7-7.8,8.1-7.8h19.4v-14.5h-13.7v9h-13v-11.8c0-5.2,2.7-7.8,8.1-7.8h24.2c5.3,0,8,2.6,8,7.8V317z M872.2,305.6v-17h-13.7
				v17.5L872.2,305.6z"/>
		</g>
	</g>
	<g>
		<g>
			<path class="st13" d="M504.7,372.6h-4.1v-29.1v-2.2v-1.1l0.1-1.1h-0.1c-0.2,0.5-0.3,0.9-0.5,1.4c-0.2,0.5-0.3,0.6-0.8,2
				l-12.4,30.1h-4.1l-12.4-29.7l-0.7-1.7l-0.3-0.9l-0.3-0.8h-0.1l0.1,1v1v2v29.1h-4.1v-36.4h7.1l9.7,23.5l1.5,3.8l0.8,1.9l0.8,1.9
				h0.1l0.8-1.9l0.8-1.9l1.5-3.8l9.6-23.5h7.2V372.6z"/>
			<path class="st13" d="M535.2,337.1c3.1,1.3,4.7,4,5.4,8.7c0.2,1.6,0.2,2.5,0.2,7.1c0,8.5-0.1,9.8-0.7,12.5
				c-0.7,3.2-2.2,5.3-4.9,6.4c-2.3,1-4.1,1.2-9.5,1.2c-6.4,0-8.1-0.2-10.5-1.2c-2.6-1.1-4.1-3.2-4.9-6.4c-0.6-2.8-0.7-4-0.7-12.5
				c0-7.6,0.3-9.7,1.8-12.5c1.2-2.2,3.3-3.6,6.4-4.2c1.3-0.2,4.1-0.4,7.3-0.4C530.9,335.9,533,336.2,535.2,337.1z M515.8,341.2
				c-1.1,1.3-1.6,2.9-1.8,5.9c-0.1,0.8-0.1,0.8-0.1,7.3c0,7.5,0,7.5,0.3,9.6c0.4,2.5,1.4,4,3.1,4.7c1.5,0.6,3,0.8,7.8,0.8
				c6.6,0,8.4-0.3,9.7-1.7c1.1-1.3,1.6-2.9,1.8-5.9c0.1-0.8,0.1-0.8,0.1-7.4c0-7.5,0-7.5-0.3-9.5c-0.4-2.5-1.4-4-3.1-4.7
				c-1.5-0.6-3.1-0.8-7.8-0.8C518.8,339.4,517,339.8,515.8,341.2z"/>
			<path class="st13" d="M545.8,336.3H563c7.8,0,10.6,2.8,10.6,10.5c0,6.6-1.4,8.8-6.3,9.6v0.1c3.8,0.2,5.8,2.7,5.8,7v9.2h-4.1v-8.3
				c0.1-4.6-2-6.5-6.9-6.3h-12.4v14.6h-4.1V336.3z M561.7,354.5c6,0,7.9-1.6,7.9-6.5c0-3.8-0.2-5.3-1-6.4c-0.8-1.2-2.6-1.8-5.5-1.8
				h-13.2v14.7H561.7z"/>
			<path class="st13" d="M582.8,352.1h18.4v3.4h-18.4v13.5H602v3.5h-23.3v-36.4H602v3.5h-19.2V352.1z"/>
			<path class="st13" d="M625,352.5h17.7v3.4H625v16.7h-4.1v-36.4h22.3v3.5H625V352.5z"/>
			<path class="st13" d="M647.2,336.3h17.3c7.8,0,10.6,2.8,10.6,10.5c0,6.6-1.4,8.8-6.3,9.6v0.1c3.8,0.2,5.8,2.7,5.8,7v9.2h-4.1
				v-8.3c0.1-4.6-2-6.5-6.9-6.3h-12.4v14.6h-4.1V336.3z M663.1,354.5c6,0,7.9-1.6,7.9-6.5c0-3.8-0.2-5.3-1-6.4
				c-0.8-1.2-2.6-1.8-5.5-1.8h-13.2v14.7H663.1z"/>
			<path class="st13" d="M704.7,337.1c3.1,1.3,4.7,4,5.4,8.7c0.2,1.6,0.2,2.5,0.2,7.1c0,8.5-0.1,9.8-0.7,12.5
				c-0.7,3.2-2.2,5.3-4.9,6.4c-2.3,1-4.1,1.2-9.5,1.2c-6.4,0-8.1-0.2-10.5-1.2c-2.6-1.1-4.1-3.2-4.9-6.4c-0.6-2.8-0.7-4-0.7-12.5
				c0-7.6,0.3-9.7,1.8-12.5c1.2-2.2,3.3-3.6,6.4-4.2c1.3-0.2,4.1-0.4,7.3-0.4C700.4,335.9,702.6,336.2,704.7,337.1z M685.3,341.2
				c-1.1,1.3-1.6,2.9-1.8,5.9c-0.1,0.8-0.1,0.8-0.1,7.3c0,7.5,0,7.5,0.3,9.6c0.4,2.5,1.4,4,3.1,4.7c1.5,0.6,3,0.8,7.8,0.8
				c6.6,0,8.4-0.3,9.7-1.7c1.1-1.3,1.6-2.9,1.8-5.9c0.1-0.8,0.1-0.8,0.1-7.4c0-7.5,0-7.5-0.3-9.5c-0.4-2.5-1.4-4-3.1-4.7
				c-1.5-0.6-3.1-0.8-7.8-0.8C688.4,339.4,686.6,339.8,685.3,341.2z"/>
			<path class="st13" d="M755.2,372.6h-4.1v-29.1v-2.2v-1.1l0.1-1.1h-0.1c-0.2,0.5-0.3,0.9-0.5,1.4c-0.2,0.5-0.3,0.6-0.8,2
				l-12.4,30.1h-4.1l-12.4-29.7l-0.7-1.7l-0.3-0.9l-0.3-0.8h-0.1l0.1,1v1v2v29.1h-4.1v-36.4h7.1l9.7,23.5l1.5,3.8l0.8,1.9l0.8,1.9
				h0.1l0.8-1.9l0.8-1.9l1.5-3.8l9.6-23.5h7.2V372.6z"/>
			<path class="st13" d="M779.8,368.8h18.7v3.8h-22.8v-36.4h4.1V368.8z"/>
			<path class="st13" d="M806.2,352.1h18.4v3.4h-18.4v13.5h19.2v3.5h-23.3v-36.4h23.3v3.5h-19.2V352.1z"/>
			<path class="st13" d="M851.4,346.1c0-2.7-0.2-3.7-0.8-4.7c-1-1.6-2.7-2-7.6-2c-5.7,0-7.6,0.3-8.7,1.6c-0.9,1-1.3,2.5-1.3,4.8
				c0,3.3,0.8,4.9,2.6,5.6c1.2,0.4,1.5,0.5,7.5,0.8c6.7,0.3,8.7,0.7,10.4,2c1.9,1.5,2.6,3.7,2.6,8.1c0,5-0.9,7.6-3.1,9
				c-2.1,1.3-4.6,1.7-12,1.7c-5.1,0-6.8-0.3-8.9-1.5c-1.4-0.8-2.6-2.6-2.9-4.4c-0.3-1.6-0.4-2.6-0.5-5.7h4.1
				c0.1,3.9,0.1,4.6,0.8,5.9c1,1.9,2.2,2.1,8.7,2.1c8.8,0,9.7-0.8,9.7-7.5c0-3.1-0.6-4.5-2.2-5.1c-1-0.4-1-0.4-7.7-0.8
				c-6.8-0.3-7.2-0.4-9-1.3c-2.9-1.5-4.1-3.9-4.1-8.5c0-4.3,0.9-6.8,2.7-8.2c2.1-1.6,4.7-2.1,10.9-2.1c6.9,0,9.6,0.7,11.3,3
				c1.1,1.5,1.6,3.4,1.6,6.6v0.6H851.4z"/>
			<path class="st13" d="M882.6,346.1c0-2.7-0.2-3.7-0.8-4.7c-1-1.6-2.7-2-7.6-2c-5.7,0-7.6,0.3-8.7,1.6c-0.9,1-1.3,2.5-1.3,4.8
				c0,3.3,0.8,4.9,2.6,5.6c1.2,0.4,1.5,0.5,7.5,0.8c6.7,0.3,8.7,0.7,10.4,2c1.9,1.5,2.6,3.7,2.6,8.1c0,5-0.9,7.6-3.1,9
				c-2.1,1.3-4.6,1.7-12,1.7c-5.1,0-6.8-0.3-8.9-1.5c-1.4-0.8-2.6-2.6-2.9-4.4c-0.3-1.6-0.4-2.6-0.5-5.7h4.1
				c0.1,3.9,0.1,4.6,0.8,5.9c1,1.9,2.2,2.1,8.7,2.1c8.8,0,9.7-0.8,9.7-7.5c0-3.1-0.6-4.5-2.2-5.1c-1-0.4-1-0.4-7.7-0.8
				c-6.8-0.3-7.2-0.4-9-1.3c-2.9-1.5-4.1-3.9-4.1-8.5c0-4.3,0.9-6.8,2.7-8.2c2.1-1.6,4.7-2.1,10.9-2.1c6.9,0,9.6,0.7,11.3,3
				c1.1,1.5,1.6,3.4,1.6,6.6v0.6H882.6z"/>
		</g>
	</g>
</g>
<g id="Text_Ausgearbeitet_Kopie_Kopie" class="st0">
	<g class="st2">
		<g>
			<path class="st13" d="M496,372h-4.2v-30.2v-2.3v-1.1l0.1-1.1h-0.1c-0.2,0.6-0.3,1-0.5,1.4c-0.2,0.5-0.3,0.6-0.8,2.1L477.5,372
				h-4.3l-12.8-30.8l-0.7-1.8l-0.3-0.9l-0.3-0.8h-0.1l0.1,1v1.1v2V372h-4.2v-37.7h7.4l10.1,24.4l1.6,3.9l0.8,2l0.8,2h0.1l0.8-2
				l0.8-2l1.6-3.9l10-24.4h7.5V372z"/>
			<path class="st13" d="M527.6,335.1c3.2,1.4,4.9,4.1,5.6,9c0.2,1.7,0.2,2.6,0.2,7.4c0,8.8-0.1,10.1-0.7,13c-0.7,3.3-2.3,5.5-5,6.6
				c-2.4,1-4.3,1.2-9.8,1.2c-6.6,0-8.4-0.2-10.9-1.2c-2.7-1.2-4.3-3.3-5-6.6c-0.6-2.9-0.7-4.2-0.7-13c0-7.9,0.3-10.1,1.9-13
				c1.2-2.3,3.5-3.7,6.6-4.4c1.4-0.2,4.3-0.4,7.6-0.4C523.2,333.9,525.4,334.1,527.6,335.1z M507.5,339.3c-1.1,1.3-1.6,3-1.9,6.2
				c-0.1,0.8-0.1,0.8-0.1,7.6c0,7.8,0,7.8,0.3,10c0.4,2.6,1.4,4.2,3.2,4.9c1.5,0.6,3.1,0.8,8.1,0.8c6.9,0,8.8-0.3,10.1-1.8
				c1.1-1.3,1.6-3,1.9-6.2c0.1-0.8,0.1-0.8,0.1-7.6c0-7.7,0-7.7-0.3-9.9c-0.4-2.6-1.4-4.2-3.2-4.9c-1.5-0.6-3.2-0.8-8.1-0.8
				C510.7,337.5,508.8,337.9,507.5,339.3z"/>
			<path class="st13" d="M538.6,334.3h17.9c8.1,0,11,2.9,11,10.9c0,6.8-1.5,9.1-6.5,10v0.1c3.9,0.2,6.1,2.8,6,7.3v9.6h-4.2v-8.6
				c0.1-4.8-2-6.7-7.1-6.6h-12.8V372h-4.2V334.3z M555.2,353.1c6.2,0,8.2-1.6,8.2-6.7c0-3.9-0.2-5.5-1-6.6c-0.8-1.2-2.7-1.9-5.7-1.9
				h-13.7v15.2H555.2z"/>
			<path class="st13" d="M577,350.7h19.1v3.6H577v14h20v3.7h-24.2v-37.7H597v3.7h-20V350.7z"/>
			<path class="st13" d="M620.9,351h18.4v3.6h-18.4V372h-4.2v-37.7h23.1v3.7h-18.9V351z"/>
			<path class="st13" d="M643.9,334.3h17.9c8.1,0,11,2.9,11,10.9c0,6.8-1.5,9.1-6.5,10v0.1c3.9,0.2,6.1,2.8,6,7.3v9.6h-4.2v-8.6
				c0.1-4.8-2-6.7-7.1-6.6h-12.8V372h-4.2V334.3z M660.4,353.1c6.2,0,8.2-1.6,8.2-6.7c0-3.9-0.2-5.5-1-6.6c-0.8-1.2-2.7-1.9-5.7-1.9
				h-13.7v15.2H660.4z"/>
			<path class="st13" d="M703.6,335.1c3.2,1.4,4.9,4.1,5.6,9c0.2,1.7,0.2,2.6,0.2,7.4c0,8.8-0.1,10.1-0.7,13c-0.7,3.3-2.3,5.5-5,6.6
				c-2.4,1-4.3,1.2-9.8,1.2c-6.6,0-8.4-0.2-10.9-1.2c-2.7-1.2-4.3-3.3-5-6.6c-0.6-2.9-0.7-4.2-0.7-13c0-7.9,0.3-10.1,1.9-13
				c1.2-2.3,3.5-3.7,6.6-4.4c1.4-0.2,4.3-0.4,7.6-0.4C699.2,333.9,701.4,334.1,703.6,335.1z M683.5,339.3c-1.1,1.3-1.6,3-1.9,6.2
				c-0.1,0.8-0.1,0.8-0.1,7.6c0,7.8,0,7.8,0.3,10c0.4,2.6,1.4,4.2,3.2,4.9c1.5,0.6,3.1,0.8,8.1,0.8c6.9,0,8.8-0.3,10.1-1.8
				c1.1-1.3,1.6-3,1.9-6.2c0.1-0.8,0.1-0.8,0.1-7.6c0-7.7,0-7.7-0.3-9.9c-0.4-2.6-1.4-4.2-3.2-4.9c-1.5-0.6-3.2-0.8-8.1-0.8
				C686.7,337.5,684.8,337.9,683.5,339.3z"/>
			<path class="st13" d="M756,372h-4.2v-30.2v-2.3v-1.1l0.1-1.1h-0.1c-0.2,0.6-0.3,1-0.5,1.4c-0.2,0.5-0.3,0.6-0.8,2.1L737.5,372
				h-4.3l-12.8-30.8l-0.7-1.8l-0.3-0.9l-0.3-0.8h-0.1l0.1,1v1.1v2V372h-4.2v-37.7h7.4l10.1,24.4l1.6,3.9l0.8,2l0.8,2h0.1l0.8-2
				l0.8-2l1.6-3.9l10-24.4h7.5V372z"/>
			<path class="st13" d="M781.6,368H801v4h-23.6v-37.7h4.2V368z"/>
			<path class="st13" d="M809,350.7h19.1v3.6H809v14h20v3.7h-24.2v-37.7h24.2v3.7h-20V350.7z"/>
			<path class="st13" d="M855.9,344.5c0-2.8-0.2-3.8-0.8-4.9c-1-1.6-2.8-2.1-7.9-2.1c-5.9,0-7.9,0.3-9.1,1.7c-0.9,1-1.4,2.6-1.4,5
				c0,3.4,0.8,5.1,2.7,5.8c1.2,0.5,1.5,0.5,7.8,0.8c7,0.3,9.1,0.7,10.7,2.1c2,1.5,2.7,3.8,2.7,8.4c0,5.1-0.9,7.9-3.2,9.3
				c-2.1,1.4-4.8,1.8-12.5,1.8c-5.3,0-7-0.3-9.2-1.5c-1.5-0.8-2.7-2.7-3.1-4.6c-0.3-1.6-0.5-2.7-0.5-5.9h4.2
				c0.1,4.1,0.1,4.8,0.8,6.2c1,1.9,2.3,2.2,9.1,2.2c9.1,0,10.1-0.8,10.1-7.8c0-3.2-0.6-4.6-2.3-5.3c-1.1-0.5-1.1-0.5-8-0.8
				c-7-0.3-7.5-0.5-9.4-1.3c-3.1-1.5-4.3-4.1-4.3-8.8c0-4.4,0.9-7.1,2.8-8.5c2.1-1.7,4.9-2.2,11.3-2.2c7.1,0,10,0.7,11.8,3.1
				c1.2,1.6,1.6,3.5,1.6,6.9v0.6H855.9z"/>
			<path class="st13" d="M888.3,344.5c0-2.8-0.2-3.8-0.8-4.9c-1-1.6-2.8-2.1-7.9-2.1c-5.9,0-7.9,0.3-9.1,1.7c-0.9,1-1.4,2.6-1.4,5
				c0,3.4,0.8,5.1,2.7,5.8c1.2,0.5,1.5,0.5,7.8,0.8c7,0.3,9.1,0.7,10.7,2.1c2,1.5,2.7,3.8,2.7,8.4c0,5.1-0.9,7.9-3.2,9.3
				c-2.1,1.4-4.8,1.8-12.5,1.8c-5.3,0-7-0.3-9.2-1.5c-1.5-0.8-2.7-2.7-3.1-4.6c-0.3-1.6-0.5-2.7-0.5-5.9h4.2
				c0.1,4.1,0.1,4.8,0.8,6.2c1,1.9,2.3,2.2,9.1,2.2c9.1,0,10.1-0.8,10.1-7.8c0-3.2-0.6-4.6-2.3-5.3c-1.1-0.5-1.1-0.5-8-0.8
				c-7-0.3-7.5-0.5-9.4-1.3c-3.1-1.5-4.3-4.1-4.3-8.8c0-4.4,0.9-7.1,2.8-8.5c2.1-1.7,4.9-2.2,11.3-2.2c7.1,0,10,0.7,11.8,3.1
				c1.2,1.6,1.6,3.5,1.6,6.9v0.6H888.3z"/>
		</g>
	</g>
	<g class="st2">
		<g>
			<path class="st13" d="M495.1,300.9c0,5.2-2.7,7.8-8,7.8H463c-5.3,0-8-2.6-8-7.8v-13.6h13.7v10.6h12.6v-10l-22-13
				c-2.9-1.7-4.3-4-4.3-6.9v-14.8c0-5.2,2.7-7.8,8.1-7.8H487c5.3,0,8,2.6,8,7.8V266h-13.6v-9.8h-12.6v9.1l21.9,12.8
				c2.9,1.7,4.4,4,4.4,7V300.9z"/>
			<path class="st13" d="M574,308.7h-14.2v-51.3l-13.5,0.3v51.1h-14.3v-51.3l-13.5,0.3v51.1h-14.3v-63.3h14.3v2.3
				c3.3-0.5,6.7-1.1,10-1.6c4-0.6,7.4-0.9,10.1-0.9c3.3,0,5.4,0.9,6.4,2.8c3.5-0.5,7-1.1,10.5-1.7c4.6-0.8,8.2-1.1,10.6-1.1
				c5.2,0,7.8,2.6,7.8,7.7V308.7z"/>
			<path class="st13" d="M624.2,308.7h-13.7v-2.2c-3.3,0.5-6.5,1-9.8,1.5c-4.3,0.6-7.5,0.9-9.7,0.9c-5.2,0-7.8-2.6-7.8-7.7v-22.8
				c0-5.2,2.7-7.8,8.1-7.8h19.4v-14.5h-13.7v9h-13v-11.8c0-5.2,2.7-7.8,8.1-7.8h24.2c5.3,0,8,2.6,8,7.8V308.7z M610.6,297.3v-17
				h-13.7v17.5L610.6,297.3z"/>
			<path class="st13" d="M647.7,308.7h-14.1v-98h14.1V308.7z"/>
			<path class="st13" d="M671.4,308.7h-14.1v-98h14.1V308.7z"/>
			<path class="st13" d="M753.1,308.7h-14.3v-2.2c-9.7,1.7-15.1,2.6-16.3,2.6c-3.6,0-6.4-1.1-8.5-3.2c-2-2.1-3.1-5-3.1-8.6v-39.2
				c0-5.1,1.8-8.7,5.5-10.7c2.7-1.5,6.7-2.3,12.2-2.3c1.2,0,3,0,5.3,0.1c2.3,0.1,3.9,0.1,4.9,0.1v-34.8h14.3V308.7z M738.8,296.4
				v-39h-8.8c-3.2,0-4.8,1.6-4.8,4.8v30.3c0,3.1,1.5,4.6,4.5,4.6C730.4,297.1,733.4,296.8,738.8,296.4z"/>
			<path class="st13" d="M803.3,308.7h-13.7v-2.2c-3.3,0.5-6.5,1-9.8,1.5c-4.3,0.6-7.5,0.9-9.7,0.9c-5.2,0-7.8-2.6-7.8-7.7v-22.8
				c0-5.2,2.7-7.8,8.1-7.8h19.4v-14.5H776v9h-13v-11.8c0-5.2,2.7-7.8,8.1-7.8h24.2c5.3,0,8,2.6,8,7.8V308.7z M789.7,297.3v-17H776
				v17.5L789.7,297.3z"/>
			<path class="st13" d="M841,308.7h-15.9c-5.3,0-8-2.6-8-7.8v-43.2h-6.8v-12.2h6.8v-17.2h14.3v17.2h9.2v12.2h-9.2v38.8h9.6V308.7z"
				/>
			<path class="st13" d="M888.8,308.7h-13.7v-2.2c-3.3,0.5-6.5,1-9.8,1.5c-4.3,0.6-7.5,0.9-9.7,0.9c-5.2,0-7.8-2.6-7.8-7.7v-22.8
				c0-5.2,2.7-7.8,8.1-7.8h19.4v-14.5h-13.7v9h-13v-11.8c0-5.2,2.7-7.8,8.1-7.8h24.2c5.3,0,8,2.6,8,7.8V308.7z M875.2,297.3v-17
				h-13.7v17.5L875.2,297.3z"/>
		</g>
	</g>
</g>
<g id="Raster" class="st0">
	<g id="Raster_A" class="st2">
		<path class="st34" d="M-354.1,733.7L1287.1-370.9 M-354.1,679L1287.1-425.6 M-354.1,624.4L1287.1-480.2 M-354.1,569.8
			L1287.1-534.8 M-354.1,515.1L1287.1-589.5 M-354.1,460.5L1287.1-644.1 M-354.1,405.9L1287.1-698.7 M-354.1,351.2L1287.1-753.4
			 M-354.1,296.6L1287.1-808 M-354.1,242L1287.1-862.6 M-354.1,187.4L1287.1-917.3 M-354.1,132.7L1287.1-971.9 M-354.1,78.1
			l1641.3-1104.6 M-354.1,23.5l1641.3-1104.6 M-354.1-31.2l1641.3-1104.6 M-354.1-85.8l1641.3-1104.6 M-354.1-140.4L1287.1-1245
			 M-354.1-195.1l1641.3-1104.6 M-354.1,788.3L1287.1-316.3 M-354.1,842.9L1287.1-261.7 M-354.1,897.6L1287.1-207 M-354.1,952.2
			L1287.1-152.4 M-354.1,1006.8L1287.1-97.8 M-354.1,1061.5L1287.1-43.1 M-354.1,1116.1L1287.1,11.5 M-354.1,1170.7L1287.1,66.1
			 M-354.1,1225.4L1287.1,120.8 M-354.1,1280L1287.1,175.4 M-354.1,1334.6L1287.1,230 M-354.1,1389.3L1287.1,284.7 M-354.1,1443.9
			L1287.1,339.3 M-354.1,1498.5L1287.1,393.9 M-354.1,1553.2L1287.1,448.5 M-354.1,1607.8L1287.1,503.2 M-354.1,1662.4L1287.1,557.8
			 M-354.1,1717.1L1287.1,612.4 M-354.1,1771.7L1287.1,667.1 M-354.1,1826.3L1287.1,721.7 M-354.1,1880.9L1287.1,776.3
			 M-354.1,1935.6L1287.1,831 M-354.1,1990.2L1287.1,885.6 M-354.1,2044.8L1287.1,940.2 M-354.1,2099.5L1287.1,994.9 M-354.1,2154.1
			l1641.3-1104.6 M-354.1,2208.7l1641.3-1104.6"/>
	</g>
	<g id="Raster_B" class="st2">
		<path class="st34" d="M-356.8-370.9L1284.5,733.7 M-356.8-425.6L1284.5,679 M-356.8-480.2L1284.5,624.4 M-356.8-534.8
			L1284.5,569.8 M-356.8-589.5L1284.5,515.1 M-356.8-644.1L1284.5,460.5 M-356.8-698.7L1284.5,405.9 M-356.8-753.4L1284.5,351.2
			 M-356.8-808L1284.5,296.6 M-356.8-862.6L1284.5,242 M-356.8-917.3L1284.5,187.4 M-356.8-971.9L1284.5,132.7 M-356.8-1026.5
			L1284.5,78.1 M-356.8-1081.2L1284.5,23.5 M-356.8-1135.8L1284.5-31.2 M-356.8-1190.4L1284.5-85.8 M-356.8-1245L1284.5-140.4
			 M-356.8-1299.7L1284.5-195.1 M-356.8-316.3L1284.5,788.3 M-356.8-261.7L1284.5,842.9 M-356.8-207L1284.5,897.6 M-356.8-152.4
			L1284.5,952.2 M-356.8-97.8l1641.3,1104.6 M-356.8-43.1l1641.3,1104.6 M-356.8,11.5l1641.3,1104.6 M-356.8,66.1l1641.3,1104.6
			 M-356.8,120.8l1641.3,1104.6 M-356.8,175.4L1284.5,1280 M-356.8,230l1641.3,1104.6 M-356.8,284.7l1641.3,1104.6 M-356.8,339.3
			l1641.3,1104.6 M-356.8,393.9l1641.3,1104.6 M-356.8,448.5l1641.3,1104.6 M-356.8,503.2l1641.3,1104.6 M-356.8,557.8
			l1641.3,1104.6 M-356.8,612.4l1641.3,1104.6 M-356.8,667.1l1641.3,1104.6 M-356.8,721.7l1641.3,1104.6 M-356.8,776.3
			l1641.3,1104.6 M-356.8,831l1641.3,1104.6 M-356.8,885.6l1641.3,1104.6 M-356.8,940.2l1641.3,1104.6 M-356.8,994.9l1641.3,1104.6
			 M-356.8,1049.5l1641.3,1104.6 M-356.8,1104.1l1641.3,1104.6"/>
	</g>
	<g id="Raster_C" class="st2">
		<path class="st34" d="M302.8-318.2V900.6 M262.2-318.2V900.6 M221.6-318.2V900.6 M181-318.2V900.6 M140.5-318.2V900.6 M99.9-318.2
			V900.6 M59.3-318.2V900.6 M18.7-318.2V900.6 M-21.9-318.2V900.6 M-62.5-318.2V900.6 M-103.1-318.2V900.6 M-143.7-318.2V900.6
			 M-184.3-318.2V900.6 M-224.8-318.2V900.6 M-265.4-318.2V900.6 M343.4-318.2V900.6 M384-318.2V900.6 M424.6-318.2V900.6
			 M465.2-318.2V900.6 M505.8-318.2V900.6 M546.3-318.2V900.6 M586.9-318.2V900.6 M627.5-318.2V900.6 M668.1-318.2V900.6
			 M708.7-318.2V900.6 M749.3-318.2V900.6 M789.9-318.2V900.6 M830.5-318.2V900.6 M871-318.2V900.6 M911.6-318.2V900.6 M952.2-318.2
			V900.6 M992.8-318.2V900.6 M1033.4-318.2V900.6 M1074-318.2V900.6 M1114.6-318.2V900.6 M1155.2-318.2V900.6 M1195.7-318.2V900.6
			 M1236.3-318.2V900.6 M1276.9-318.2V900.6"/>
	</g>
</g>
</svg>
